<?xml version='1.0' encoding='utf-8'?>
<svg xmlns="http://www.w3.org/2000/svg" width="1920" height="1080" viewBox="0 0 1920 1080" data-theme="dark" data-semantic-intent="compare" data-relation-type="taxonomy" data-site-visual-identity="signal-cobalt">
  <style>
        @font-face {
            font-family: 'Inter';
            src: url('assets/fonts/Inter-Regular.ttf') format('truetype');
            font-weight: 400;
            font-style: normal;
            font-display: swap;
        }
        @font-face {
            font-family: 'Inter';
            src: url('assets/fonts/Inter-Bold.ttf') format('truetype');
            font-weight: 600;
            font-style: normal;
            font-display: swap;
        }
        @font-face {
            font-family: 'Inter';
            src: url('assets/fonts/Inter-Bold.ttf') format('truetype');
            font-weight: 800;
            font-style: normal;
            font-display: swap;
        }
        
:root {
    --background: #0f172a;
    --panel: #1e293b;
    --primary-text: #f1f5f9;
    --muted-text: #94a3b8;
    --inverse-text: #0f172a;
    --border: #334155;
    --shadow-color: #000000;
    --icon-pad-bg: #1e293b;
    --art-glow: #7dd3fc;
    --art-glow-opacity: 0.18;
    --art-sheen: #ffffff;
    --art-sheen-opacity: 0.18;
    --art-shadow: #000000;
    --art-shadow-opacity: 0.28;
    --art-muted-line: #64748b;
    --art-panel-tint: #1e293b;
    --semantic-risk: #f87171;
    --semantic-warning: #fb923c;
    --semantic-uncertain: #fbbf24;
    --semantic-evidence: #60a5fa;
    --semantic-claim: #c084fc;
    --semantic-positive: #4ade80;
    --semantic-outcome: #22d3ee;
    --font-family: 'Inter', 'Segoe UI', 'Kalam', Roboto, Helvetica, Arial, sans-serif;
    --radius-xl: 16px;
    --font-family-headline: 'Segoe UI Variable Display', 'Aptos Display', 'Inter', 'Segoe UI', Helvetica, Arial, sans-serif;
    --font-family-body: 'Segoe UI Variable Text', 'Aptos', 'Inter', 'Segoe UI', Helvetica, Arial, sans-serif;
    --font-heading: var(--font-family-headline);
    --font-body: var(--font-family-body);
    --font-size-h1: 64px;
    --font-size-h2: 42px;
    --font-size-h3: 29px;
    --font-size-body: 21px;
    --font-size-caption: 17px;
    --secondary-text: var(--muted-text);
    --panel-border: var(--border);
    --font-weight-normal: 400;
    --font-weight-medium: 500;
    --font-weight-semibold: 600;
    --font-weight-bold: 700;
    --spacing-gutter-pct: 0.07;
    --spacing-top-pct: 0.15;
    --spacing-bottom-pct: 0.07;
    --spacing-title-y-pct: 0.055;
    --accent-1: #93c5fd;
    --accent-2: #60a5fa;
    --accent-3: #818cf8;
    --accent-4: #a78bfa;
    --accent-5: #38bdf8;
    --accent-6: #fb923c;
}
:root[data-theme="dark"] {
    --background: #0f172a;
    --panel: #1e293b;
    --primary-text: #f1f5f9;
    --muted-text: #94a3b8;
    --inverse-text: #0f172a;
    --border: #334155;
    --shadow-color: #000000;
    --icon-pad-bg: #1e293b;
    --art-glow: #7dd3fc;
    --art-glow-opacity: 0.18;
    --art-sheen: #ffffff;
    --art-sheen-opacity: 0.18;
    --art-shadow: #000000;
    --art-shadow-opacity: 0.28;
    --art-muted-line: #64748b;
    --art-panel-tint: #1e293b;
    --semantic-risk: #f87171;
    --semantic-warning: #fb923c;
    --semantic-uncertain: #fbbf24;
    --semantic-evidence: #60a5fa;
    --semantic-claim: #c084fc;
    --semantic-positive: #4ade80;
    --semantic-outcome: #22d3ee;
    --accent-1: #93c5fd;
    --accent-2: #60a5fa;
    --accent-3: #818cf8;
    --accent-4: #a78bfa;
    --accent-5: #38bdf8;
    --accent-6: #fb923c;
}
:root[data-theme="light"] {
    --background: #f8fafc;
    --panel: #ffffff;
    --primary-text: #0f172a;
    --muted-text: #64748b;
    --inverse-text: #ffffff;
    --border: #e2e8f0;
    --shadow-color: #000000;
    --icon-pad-bg: #1e293b;
    --art-glow: #0891b2;
    --art-glow-opacity: 0.10;
    --art-sheen: #ffffff;
    --art-sheen-opacity: 0.34;
    --art-shadow: #0f172a;
    --art-shadow-opacity: 0.14;
    --art-muted-line: #94a3b8;
    --art-panel-tint: #f1f5f9;
    --semantic-risk: #b91c1c;
    --semantic-warning: #c2410c;
    --semantic-uncertain: #a16207;
    --semantic-evidence: #1d4ed8;
    --semantic-claim: #6d28d9;
    --semantic-positive: #15803d;
    --semantic-outcome: #0e7490;
    --accent-1: #1d4ed8;
    --accent-2: #2563eb;
    --accent-3: #4f46e5;
    --accent-4: #6d28d9;
    --accent-5: #0369a1;
    --accent-6: #c2410c;
}</style>
  <rect x="0" y="0" width="1.92E+3" height="1.08E+3" fill="#252a34" stroke="none" id="programmatic_background"/>
  <line id="HEADER_DECOR" x1="960.0" x2="1080.0" y1="135.0" y2="135.0" stroke="var(--accent-1)" stroke-width="6" stroke-linecap="round"/>
  <defs>
    <pattern id="svg3fa5d64d-napkin-hatch" patternUnits="userSpaceOnUse" width="12" height="12">
      <path d="M -3 12 L 12 -3 M 0 15 L 15 0" fill="none" stroke="var(--primary-text)" stroke-width="1" stroke-opacity="0.05"/>
    </pattern>
    <filter id="svg3fa5d64d-shadow" x="-30%" y="-30%" width="160%" height="160%">
      <feDropShadow dx="0" dy="2" stdDeviation="3" flood-color="#000000" flood-opacity="0.08"/>
      <feDropShadow dx="0" dy="6" stdDeviation="10" flood-color="#000000" flood-opacity="0.12"/>
    </filter>
    <marker id="svg3fa5d64d-arrowhead" markerWidth="10" markerHeight="10" refX="9" refY="5" orient="auto">
      <path d="M 0 0 L 10 5 L 0 10 Z" fill="var(--accent-1)"/>
    </marker>
    <filter id="svg3fa5d64d-text-glow" x="-20%" y="-20%" width="140%" height="140%">
      <feDropShadow dx="0" dy="0" stdDeviation="2" flood-color="#000000" flood-opacity="0.4"/>
    </filter>
    <radialGradient id="svg3fa5d64d-universal-edge-vignette" cx="50%" cy="50%" r="72%">
      <stop offset="0%" stop-color="var(--background)" stop-opacity="0"/>
      <stop offset="72%" stop-color="var(--background)" stop-opacity="0.12"/>
      <stop offset="100%" stop-color="var(--primary-text)" stop-opacity="0.08"/>
    </radialGradient>
    <linearGradient id="svg3fa5d64d-universal-surface-sheen" x1="0%" y1="0%" x2="100%" y2="100%">
      <stop offset="0%" stop-color="var(--art-sheen)" stop-opacity="var(--art-sheen-opacity)"/>
      <stop offset="46%" stop-color="var(--art-sheen)" stop-opacity="0.035"/>
      <stop offset="100%" stop-color="var(--art-panel-tint)" stop-opacity="0.14"/>
    </linearGradient>
    <radialGradient id="svg3fa5d64d-universal-icon-aura" cx="50%" cy="42%" r="64%">
      <stop offset="0%" stop-color="var(--art-glow)" stop-opacity="var(--art-glow-opacity)"/>
      <stop offset="100%" stop-color="var(--background)" stop-opacity="0"/>
    </radialGradient>
    <linearGradient id="svg3fa5d64d-myth-card-sheen" x1="0%" y1="0%" x2="100%" y2="100%">
      <stop offset="0%" stop-color="var(--inverse-text)" stop-opacity="0.18"/>
      <stop offset="56%" stop-color="var(--inverse-text)" stop-opacity="0.03"/>
      <stop offset="100%" stop-color="var(--background)" stop-opacity="0.12"/>
    </linearGradient>
  </defs>
  <rect width="100%" height="100%" fill="var(--background)" id="CANVAS_BG"/>
  <rect width="100%" height="100%" fill="url(#svg3fa5d64d-napkin-hatch)"/>
  <rect id="UNIVERSAL_EDGE_VIGNETTE" width="100%" height="100%" fill="url(#svg3fa5d64d-universal-edge-vignette)" opacity="0.62"/>
  <text id="TITLE" x="960.0" y="59" text-anchor="middle" font-weight="800" font-size="56" fill="#f1f5f9" style="font-size: 69px; font-family: 'Segoe UI Variable Display', 'Aptos Display', 'Inter', 'Segoe UI', Helvetica, Arial, sans-serif; font-weight: 800; font-kerning: normal; font-feature-settings: &quot;kern&quot; 1, &quot;liga&quot; 1; letter-spacing:-1.2px;" data-final-font-size="69">
    <tspan x="960.0" dy="70.47px">Witness Analogies for UFO Sounds</tspan>
  </text>
  <rect id="TITLE_FRAME" x="134" y="59" width="1652" height="103" fill="none"/>
  <g transform="translate(0, 190) scale(1.0)">
    <path d="M 920 -8 C 950 80 950 720 920 808" stroke="var(--primary-text)" stroke-width="2" stroke-opacity="0.10" fill="none"/>
    <path d="M 1000 -8 C 970 80 970 720 1000 808" stroke="var(--primary-text)" stroke-width="2" stroke-opacity="0.10" fill="none"/>
    <text x="480.0" y="0" text-anchor="middle" font-weight="900" font-size="52" fill="var(--accent-1)">MYTHS</text>
    <text x="1440.0" y="0" text-anchor="middle" font-weight="900" font-size="52" fill="var(--accent-2)">REALITY</text>
    <!-- Row 1 - cards at y=130 -->
    <g transform="translate(480.0, 130.0)">
      <rect id="ITEM_1_ACCENT_BG" x="-400" y="-110" width="800" height="245" rx="24" fill="var(--accent-6)" fill-opacity="0.15" stroke="none"/>
      <rect id="ITEM_1_BG" x="-400" y="-110" width="800" height="245" rx="18" fill="var(--panel)" stroke="var(--accent-1)" filter="url(#svg3fa5d64d-shadow)" stroke-width="3"/>
      <rect x="-388" y="-98" width="776" height="221" rx="16" fill="url(#svg3fa5d64d-myth-card-sheen)" opacity="0.92"/>
      <circle id="ITEM_1_PAD" cx="-330" cy="-40" r="46" fill="var(--icon-pad-bg)" stroke="var(--accent-6)" stroke-width="2" stroke-opacity="0.72" opacity="1" fill-opacity="0.9" data-badge-layer="pad"/>
      <circle id="ITEM_1_PAD_INNER" cx="-330" cy="-40" r="35.88" fill="var(--accent-6)" fill-opacity="0.12" stroke="none" data-badge-layer="tint"/>
      <circle cx="-330" cy="-40" r="34" fill="none" stroke="var(--accent-1)" stroke-width="3" stroke-dasharray="6 4" display="none" data-suppressed-decoration="redundant-badge-ring"/>
      <g id="ITEM_1_ICON" transform="translate(-358, -68)" data-icon-size="56" stroke-linecap="round" stroke-linejoin="round" data-badge-treatment="clean">
        <g transform="translate(-10.920677966101696,-10.920677966101698) scale(3.243389830508475)" vector-effect="non-scaling-stroke" stroke-width="2.38" stroke-linecap="round" stroke-linejoin="round" stroke-opacity="1.0">
          <ellipse cx="12" cy="5" rx="9" ry="3" vector-effect="non-scaling-stroke" fill="none" stroke="#f1f5f9"/>
          <path d="M3 5V19A9 3 0 0 0 21 19V5" vector-effect="non-scaling-stroke" fill="none" stroke="#f1f5f9"/>
          <path d="M3 12A9 3 0 0 0 21 12" vector-effect="non-scaling-stroke" fill="none" stroke="#f1f5f9"/>
        </g>
      </g>
      <text id="ITEM_1_HEAD" x="52.0" y="-85.0" text-anchor="middle" font-weight="bold" font-size="28" fill="var(--accent-6)" data-bg-id="ITEM_1_BG" fill-opacity="1.0" stroke="none" style="font-size: 31px; font-family: 'Segoe UI Variable Display', 'Aptos Display', 'Inter', 'Segoe UI', Helvetica, Arial, sans-serif; font-weight: 700; font-kerning: normal; font-feature-settings: &quot;kern&quot; 1, &quot;liga&quot; 1; letter-spacing:-0.4px;" data-final-font-size="31">
        <tspan x="52.0" dy="38.02px">Power Infrastructure</tspan>
      </text>
      <rect id="ITEM_1_HEAD_FRAME" x="-220" y="-85" width="544" height="50" fill="none"/>
      <text id="ITEM_1_BODY" x="52.0" y="-14.0" text-anchor="middle" font-size="22" fill="var(--primary-text)" opacity="0.88" data-bg-id="ITEM_1_BG" data-max-lines="5" style="font-size: 23px; font-family: 'Segoe UI Variable Text', 'Aptos', 'Inter', 'Segoe UI', Helvetica, Arial, sans-serif; font-weight: 400; font-kerning: normal; font-feature-settings: &quot;kern&quot; 1, &quot;liga&quot; 1;" data-final-font-size="23">
        <tspan x="52.0" dy="42.37px">Compared to large electrical transformers or stations</tspan>
      </text>
      <rect id="ITEM_1_BODY_FRAME" x="-220" y="-14" width="544" height="124" fill="none"/>
    </g>
    <g transform="translate(1440.0, 130.0)">
      <rect id="ITEM_2_ACCENT_BG" x="-400" y="-110" width="800" height="245" rx="24" fill="var(--accent-2)" fill-opacity="0.15" stroke="none"/>
      <rect id="ITEM_2_BG" x="-400" y="-110" width="800" height="245" rx="18" fill="var(--panel)" stroke="var(--accent-2)" filter="url(#svg3fa5d64d-shadow)" stroke-width="3"/>
      <rect x="-388" y="-98" width="776" height="221" rx="16" fill="url(#svg3fa5d64d-myth-card-sheen)" opacity="0.92"/>
      <circle id="ITEM_2_PAD" cx="330" cy="-40" r="46" fill="var(--icon-pad-bg)" stroke="var(--accent-2)" stroke-width="2" stroke-opacity="0.72" opacity="1" fill-opacity="0.9" data-badge-layer="pad"/>
      <circle id="ITEM_2_PAD_INNER" cx="330" cy="-40" r="35.88" fill="var(--accent-2)" fill-opacity="0.12" stroke="none" data-badge-layer="tint"/>
      <circle cx="330" cy="-40" r="34" fill="none" stroke="var(--accent-2)" stroke-width="3" stroke-dasharray="6 4" display="none" data-suppressed-decoration="redundant-badge-ring"/>
      <g id="ITEM_2_ICON" transform="translate(302, -68)" data-icon-size="56" stroke-linecap="round" stroke-linejoin="round" data-badge-treatment="clean">
        <g transform="translate(-14.524444444444448,-14.52444444444445) scale(3.543703703703704)" vector-effect="non-scaling-stroke" stroke-width="2.38" stroke-linecap="round" stroke-linejoin="round" stroke-opacity="1.0">
          <path d="M3 10v6" vector-effect="non-scaling-stroke" fill="none" stroke="#f1f5f9"/>
          <path d="M12 5v3" vector-effect="non-scaling-stroke" fill="none" stroke="#f1f5f9"/>
          <path d="M10 5h4" vector-effect="non-scaling-stroke" fill="none" stroke="#f1f5f9"/>
          <path d="M5 13h-2" vector-effect="non-scaling-stroke" fill="none" stroke="#f1f5f9"/>
          <path d="M6 10h2l2 -2h3.382a1 1 0 0 1 .894 .553l1.448 2.894a1 1 0 0 0 .894 .553h1.382v-2h2a1 1 0 0 1 1 1v6a1 1 0 0 1 -1 1h-2v-2h-3v2a1 1 0 0 1 -1 1h-3.465a1 1 0 0 1 -.832 -.445l-1.703 -2.555h-2v-6z" vector-effect="non-scaling-stroke" fill="none" stroke="#f1f5f9"/>
        </g>
      </g>
      <text id="ITEM_2_HEAD" x="-52.0" y="-85.0" text-anchor="middle" font-weight="bold" font-size="28" fill="var(--accent-2)" data-bg-id="ITEM_2_BG" fill-opacity="1.0" stroke="none" style="font-size: 31px; font-family: 'Segoe UI Variable Display', 'Aptos Display', 'Inter', 'Segoe UI', Helvetica, Arial, sans-serif; font-weight: 700; font-kerning: normal; font-feature-settings: &quot;kern&quot; 1, &quot;liga&quot; 1; letter-spacing:-0.4px;" data-final-font-size="31">
        <tspan x="-52.0" dy="38.02px">Industrial Machinery</tspan>
      </text>
      <rect id="ITEM_2_HEAD_FRAME" x="-324" y="-85" width="544" height="50" fill="none"/>
      <text id="ITEM_2_BODY" x="-52.0" y="-14.0" text-anchor="middle" font-size="22" fill="var(--primary-text)" opacity="0.88" data-bg-id="ITEM_2_BG" data-max-lines="5" style="font-size: 23px; font-family: 'Segoe UI Variable Text', 'Aptos', 'Inter', 'Segoe UI', Helvetica, Arial, sans-serif; font-weight: 400; font-kerning: normal; font-feature-settings: &quot;kern&quot; 1, &quot;liga&quot; 1;" data-final-font-size="23">
        <tspan x="-52.0" dy="42.37px">Described as generator-like or high-voltage equipment</tspan>
      </text>
      <rect id="ITEM_2_BODY_FRAME" x="-324" y="-14" width="544" height="124" fill="none"/>
    </g>
    <!-- Row 2 - cards at y=400 -->
    <g transform="translate(480.0, 400.0)">
      <rect id="ITEM_3_ACCENT_BG" x="-400" y="-110" width="800" height="245" rx="24" fill="var(--accent-3)" fill-opacity="0.15"/>
      <rect id="ITEM_3_BG" x="-400" y="-110" width="800" height="245" rx="18" fill="var(--panel)" stroke="var(--accent-3)" filter="url(#svg3fa5d64d-shadow)" stroke-width="3"/>
      <rect x="-388" y="-98" width="776" height="221" rx="16" fill="url(#svg3fa5d64d-myth-card-sheen)" opacity="0.92"/>
      <circle id="ITEM_3_PAD" cx="-330" cy="-40" r="46" fill="var(--icon-pad-bg)" stroke="var(--accent-3)" stroke-width="2" stroke-opacity="0.72" opacity="1" data-badge-layer="pad"/>
      <circle id="ITEM_3_PAD_INNER" cx="-330" cy="-40" r="35.88" fill="var(--accent-3)" fill-opacity="0.12" stroke="none" data-badge-layer="tint"/>
      <circle cx="-330" cy="-40" r="34" fill="none" stroke="var(--accent-3)" stroke-width="3" stroke-dasharray="6 4" display="none" data-suppressed-decoration="redundant-badge-ring"/>
      <g id="ITEM_3_ICON" transform="translate(-358, -68)" data-icon-size="56" stroke-linecap="round" stroke-linejoin="round" data-badge-treatment="clean">
        <g transform="translate(-13.751272727272738,-13.751272727272735) scale(2.0875636363636367)">
          <path d="m11.47,27.346h-6.495c-1.091,0-1.975-.884-1.975-1.975v-10.742c0-1.091.884-1.975,1.975-1.975h6.495v14.692Z" fill="#4e5968"/>
          <path d="m11.47,27.346v-14.692L29.944,3.894c1.31-.621,2.821.334,2.821,1.785v28.643c0,1.45-1.511,2.406-2.821,1.785l-18.474-8.76Z" fill="#6b7683"/>
          <path d="m32.765,16.327h2.26c1.091,0,1.975.884,1.975,1.975v3.396c0,1.091-.884,1.975-1.975,1.975h-2.26" fill="#4e5968"/>
        </g>
      </g>
      <text id="ITEM_3_HEAD" x="52.0" y="-85.0" text-anchor="middle" font-weight="bold" font-size="28" fill="var(--accent-3)" data-bg-id="ITEM_3_BG" style="font-size: 31px; font-family: 'Segoe UI Variable Display', 'Aptos Display', 'Inter', 'Segoe UI', Helvetica, Arial, sans-serif; font-weight: 700; font-kerning: normal; font-feature-settings: &quot;kern&quot; 1, &quot;liga&quot; 1; letter-spacing:-0.4px;" data-final-font-size="31">
        <tspan x="52.0" dy="38.02px">Deep Vibrations</tspan>
      </text>
      <rect id="ITEM_3_HEAD_FRAME" x="-220" y="-85" width="544" height="50" fill="none"/>
      <text id="ITEM_3_BODY" x="52.0" y="-14.0" text-anchor="middle" font-size="22" fill="var(--primary-text)" opacity="0.88" data-bg-id="ITEM_3_BG" data-max-lines="5" style="font-size: 23px; font-family: 'Segoe UI Variable Text', 'Aptos', 'Inter', 'Segoe UI', Helvetica, Arial, sans-serif; font-weight: 400; font-kerning: normal; font-feature-settings: &quot;kern&quot; 1, &quot;liga&quot; 1;" data-final-font-size="23">
        <tspan x="52.0" dy="42.37px">Witnesses noted a steady low-frequency drone</tspan>
      </text>
      <rect id="ITEM_3_BODY_FRAME" x="-220" y="-14" width="544" height="124" fill="none"/>
    </g>
    <g transform="translate(1440.0, 400.0)">
      <rect id="ITEM_4_ACCENT_BG" x="-400" y="-110" width="800" height="245" rx="24" fill="var(--accent-4)" fill-opacity="0.15"/>
      <rect id="ITEM_4_BG" x="-400" y="-110" width="800" height="245" rx="18" fill="var(--panel)" stroke="var(--accent-4)" filter="url(#svg3fa5d64d-shadow)" stroke-width="3"/>
      <rect x="-388" y="-98" width="776" height="221" rx="16" fill="url(#svg3fa5d64d-myth-card-sheen)" opacity="0.92"/>
      <circle id="ITEM_4_PAD" cx="330" cy="-40" r="46" fill="var(--icon-pad-bg)" stroke="var(--accent-4)" stroke-width="2" stroke-opacity="0.72" opacity="1" data-badge-layer="pad"/>
      <circle id="ITEM_4_PAD_INNER" cx="330" cy="-40" r="35.88" fill="var(--accent-4)" fill-opacity="0.12" stroke="none" data-badge-layer="tint"/>
      <circle cx="330" cy="-40" r="34" fill="none" stroke="var(--accent-4)" stroke-width="3" stroke-dasharray="6 4" display="none" data-suppressed-decoration="redundant-badge-ring"/>
      <g id="ITEM_4_ICON" transform="translate(302, -68)" data-icon-size="56" stroke-linecap="round" stroke-linejoin="round" data-badge-treatment="clean">
        <g transform="translate(-13.005714285714289,-12.365000000000007) scale(2.562857142857143)">
          <path d="M25.0642 23.4047L23.9155 20.598L22.2011 21.2996L23.3511 24.1097L23.3525 24.113C23.5183 24.5137 23.3281 24.9545 22.9426 25.1096L18.0368 27.1219L18.0342 27.123C17.6335 27.2888 17.1927 27.0987 17.0376 26.7132L15.8855 23.898L14.1711 24.5997L15.3202 27.4074C15.8659 28.7594 17.403 29.3881 18.741 28.8353L18.7425 28.8347L23.6372 26.8268C24.9889 26.281 25.6173 24.7444 25.065 23.4066L25.0642 23.4047ZM8 23.5L9.70824 26.7789C10.3282 27.4289 10.2982 28.4589 9.63824 29.0689C8.98824 29.6789 7.95824 29.6489 7.34824 28.9989L2.43824 23.7889C1.82824 23.1389 1.85824 22.1089 2.50824 21.4989C3.15824 20.8889 4.18824 20.9189 4.79824 21.5689L8 23.5Z" fill="#FFB02E"/>
          <path d="M29.2283 15.0788L17.6783 2.82884C16.4083 1.47884 14.1783 1.82887 13.3883 3.50887L4.79834 21.5689L9.76834 26.8389L28.3083 19.3288C30.0183 18.6388 30.4983 16.4288 29.2283 15.0788Z" fill="#F9C23C"/>
        </g>
      </g>
      <text id="ITEM_4_HEAD" x="-52.0" y="-85.0" text-anchor="middle" font-weight="bold" font-size="28" fill="var(--accent-4)" data-bg-id="ITEM_4_BG" style="font-size: 31px; font-family: 'Segoe UI Variable Display', 'Aptos Display', 'Inter', 'Segoe UI', Helvetica, Arial, sans-serif; font-weight: 700; font-kerning: normal; font-feature-settings: &quot;kern&quot; 1, &quot;liga&quot; 1; letter-spacing:-0.4px;" data-final-font-size="31">
        <tspan x="-52.0" dy="38.02px">Diffuse Acoustics</tspan>
      </text>
      <rect id="ITEM_4_HEAD_FRAME" x="-324" y="-85" width="544" height="50" fill="none"/>
      <text id="ITEM_4_BODY" x="-52.0" y="-14.0" text-anchor="middle" font-size="22" fill="var(--primary-text)" opacity="0.88" data-bg-id="ITEM_4_BG" data-max-lines="5" style="font-size: 23px; font-family: 'Segoe UI Variable Text', 'Aptos', 'Inter', 'Segoe UI', Helvetica, Arial, sans-serif; font-weight: 400; font-kerning: normal; font-feature-settings: &quot;kern&quot; 1, &quot;liga&quot; 1;" data-final-font-size="23">
        <tspan x="-52.0" dy="42.37px">Sound seemed to fill the surrounding area</tspan>
      </text>
      <rect id="ITEM_4_BODY_FRAME" x="-324" y="-14" width="544" height="124" fill="none"/>
    </g>
    <!-- Row 3 - cards at y=670 -->
    <g transform="translate(480.0, 670.0)">
      <rect id="ITEM_5_ACCENT_BG" x="-400" y="-110" width="800" height="245" rx="24" fill="var(--accent-5)" fill-opacity="0.15"/>
      <rect id="ITEM_5_BG" x="-400" y="-110" width="800" height="245" rx="18" fill="var(--panel)" stroke="var(--accent-5)" filter="url(#svg3fa5d64d-shadow)" stroke-width="3"/>
      <rect x="-388" y="-98" width="776" height="221" rx="16" fill="url(#svg3fa5d64d-myth-card-sheen)" opacity="0.92"/>
      <circle id="ITEM_5_PAD" cx="-330" cy="-40" r="46" fill="var(--icon-pad-bg)" stroke="var(--accent-5)" stroke-width="2" stroke-opacity="0.72" opacity="1" data-badge-layer="pad"/>
      <circle id="ITEM_5_PAD_INNER" cx="-330" cy="-40" r="35.88" fill="var(--accent-5)" fill-opacity="0.12" stroke="none" data-badge-layer="tint"/>
      <circle cx="-330" cy="-40" r="34" fill="none" stroke="var(--accent-5)" stroke-width="3" stroke-dasharray="6 4" display="none" data-suppressed-decoration="redundant-badge-ring"/>
      <g id="ITEM_5_ICON" transform="translate(-358, -68)" data-icon-size="56" stroke-linecap="round" stroke-linejoin="round" data-badge-treatment="clean">
        <g transform="translate(-15.32679245283019,-15.32679245283019) scale(0.16924528301886793)" vector-effect="non-scaling-stroke" fill="#f1f5f9" fill-opacity="1.0" stroke="none">
          <path fill="#f1f5f9" d="M273.063 47.188c-1.974.032-3.98.123-6 .25c-60.62 3.805-100.33 35.933-123.563 83.78c-22.862 47.083-28.442 109.71-17.125 172.47l1.75 1.75l-1.406 5.718c-3.43 14.203-1.17 31.297 4.28 45.97c5.45 14.67 14.52 26.75 20.594 30.78l5.03 3.344l-.374 6c-1.355 21.968 6.887 38.96 18.438 50.688c11.55 11.726 26.687 17.447 36.593 16.843c10.25-.623 15.605-3.796 21.25-10c5.648-6.202 10.894-16.054 17.064-28.28c12.34-24.452 28.935-57.856 68.094-87.094c63.353-47.305 82.793-122.987 70-185.656c-6.397-31.334-20.867-59.136-41.407-78.313c-17.97-16.78-40.38-27.204-67.374-28.187c-1.928-.07-3.87-.095-5.844-.063m-6.875 54.156a91 91 0 0 1 3.843 0c26.317.48 51.695 12.228 69.314 35.437A9 9 0 1 1 325 147.657c-25.65-33.79-69.065-37.748-104.344-12.437c-18.275 13.11-34.26 34.452-43.312 64.343c12.93-13.697 27.912-27.055 44.5-35.532c9.905-5.06 20.616-8.356 31.656-8.405c3.68-.016 7.393.332 11.125 1.094c14.928 3.046 29.34 12.706 42.188 29.686a9.003 9.003 0 1 1-14.375 10.844c-10.987-14.52-21.443-20.872-31.407-22.906c-9.962-2.034-20.222.21-31 5.72c-21.54 11.006-43.38 35.2-59.5 54.686c-1.83 18.726-1.345 39.794 2.126 63.25c12.828.502 23.317 3.768 30.97 9.72c9.264 7.204 13.86 17.8 14.53 28.25c1.343 20.897-10.62 42.6-30.625 51.06a9.01 9.01 0 0 1-7.03-16.592c11.446-4.842 20.493-20.77 19.688-33.313c-.403-6.27-2.644-11.314-7.625-15.188c-4.982-3.873-13.416-6.82-27.22-6.062a9 9 0 0 1-9.374-7.47c-16.06-93.725 12.22-157.702 54.186-187.81c17.214-12.35 36.787-18.802 56.03-19.25z" vector-effect="non-scaling-stroke" stroke="none"/>
        </g>
      </g>
      <text id="ITEM_5_HEAD" x="52.0" y="-85.0" text-anchor="middle" font-weight="bold" font-size="28" fill="var(--accent-5)" data-bg-id="ITEM_5_BG" style="font-size: 31px; font-family: 'Segoe UI Variable Display', 'Aptos Display', 'Inter', 'Segoe UI', Helvetica, Arial, sans-serif; font-weight: 700; font-kerning: normal; font-feature-settings: &quot;kern&quot; 1, &quot;liga&quot; 1; letter-spacing:-0.4px;" data-final-font-size="31">
        <tspan x="52.0" dy="38.02px">Subjective Impressions</tspan>
      </text>
      <rect id="ITEM_5_HEAD_FRAME" x="-220" y="-85" width="544" height="50" fill="none"/>
      <text id="ITEM_5_BODY" x="52.0" y="-14.0" text-anchor="middle" font-size="22" fill="var(--primary-text)" opacity="0.88" data-bg-id="ITEM_5_BG" data-max-lines="5" style="font-size: 23px; font-family: 'Segoe UI Variable Text', 'Aptos', 'Inter', 'Segoe UI', Helvetica, Arial, sans-serif; font-weight: 400; font-kerning: normal; font-feature-settings: &quot;kern&quot; 1, &quot;liga&quot; 1;" data-final-font-size="23">
        <tspan x="52.0" dy="37.08px">Descriptions rely on personal comparison rather</tspan>
        <tspan x="52.0" dy="26.45px">than measurements</tspan>
      </text>
      <rect id="ITEM_5_BODY_FRAME" x="-220" y="-14" width="544" height="124" fill="none"/>
    </g>
  </g>
  <text id="SOURCE_NOTE" x="134.0" y="1058.0" fill="var(--muted-text)" opacity="1" style="font-family: var(--font-family); font-size: 20px;">Source: UFO REPORTS INVOLVING VEHICLE INTERFERENCE</text>
</svg>
