<?xml version='1.0' encoding='utf-8'?>
<svg xmlns="http://www.w3.org/2000/svg" width="1920" height="1080" viewBox="0 0 1920 1080" data-theme="light" data-semantic-intent="sequence" data-relation-type="sequence" data-site-visual-identity="signal-cobalt">
  <style>
        @font-face {
            font-family: 'Inter';
            src: url('assets/fonts/Inter-Regular.ttf') format('truetype');
            font-weight: 400;
            font-style: normal;
            font-display: swap;
        }
        @font-face {
            font-family: 'Inter';
            src: url('assets/fonts/Inter-Bold.ttf') format('truetype');
            font-weight: 600;
            font-style: normal;
            font-display: swap;
        }
        @font-face {
            font-family: 'Inter';
            src: url('assets/fonts/Inter-Bold.ttf') format('truetype');
            font-weight: 800;
            font-style: normal;
            font-display: swap;
        }
        
:root {
    --background: #f8fafc;
    --panel: #ffffff;
    --primary-text: #0f172a;
    --muted-text: #64748b;
    --inverse-text: #ffffff;
    --border: #e2e8f0;
    --shadow-color: #000000;
    --icon-pad-bg: #1e293b;
    --art-glow: #0891b2;
    --art-glow-opacity: 0.10;
    --art-sheen: #ffffff;
    --art-sheen-opacity: 0.34;
    --art-shadow: #0f172a;
    --art-shadow-opacity: 0.14;
    --art-muted-line: #94a3b8;
    --art-panel-tint: #f1f5f9;
    --semantic-risk: #b91c1c;
    --semantic-warning: #c2410c;
    --semantic-uncertain: #a16207;
    --semantic-evidence: #1d4ed8;
    --semantic-claim: #6d28d9;
    --semantic-positive: #15803d;
    --semantic-outcome: #0e7490;
    --font-family: 'Inter', 'Segoe UI', 'Kalam', Roboto, Helvetica, Arial, sans-serif;
    --radius-xl: 16px;
    --font-family-headline: 'Segoe UI Variable Display', 'Aptos Display', 'Inter', 'Segoe UI', Helvetica, Arial, sans-serif;
    --font-family-body: 'Segoe UI Variable Text', 'Aptos', 'Inter', 'Segoe UI', Helvetica, Arial, sans-serif;
    --font-heading: var(--font-family-headline);
    --font-body: var(--font-family-body);
    --font-size-h1: 64px;
    --font-size-h2: 42px;
    --font-size-h3: 29px;
    --font-size-body: 21px;
    --font-size-caption: 17px;
    --secondary-text: var(--muted-text);
    --panel-border: var(--border);
    --font-weight-normal: 400;
    --font-weight-medium: 500;
    --font-weight-semibold: 600;
    --font-weight-bold: 700;
    --spacing-gutter-pct: 0.07;
    --spacing-top-pct: 0.15;
    --spacing-bottom-pct: 0.07;
    --spacing-title-y-pct: 0.055;
    --accent-1: #1d4ed8;
    --accent-2: #2563eb;
    --accent-3: #4f46e5;
    --accent-4: #6d28d9;
    --accent-5: #0369a1;
    --accent-6: #c2410c;
}
:root[data-theme="dark"] {
    --background: #0f172a;
    --panel: #1e293b;
    --primary-text: #f1f5f9;
    --muted-text: #94a3b8;
    --inverse-text: #0f172a;
    --border: #334155;
    --shadow-color: #000000;
    --icon-pad-bg: #1e293b;
    --art-glow: #7dd3fc;
    --art-glow-opacity: 0.18;
    --art-sheen: #ffffff;
    --art-sheen-opacity: 0.18;
    --art-shadow: #000000;
    --art-shadow-opacity: 0.28;
    --art-muted-line: #64748b;
    --art-panel-tint: #1e293b;
    --semantic-risk: #f87171;
    --semantic-warning: #fb923c;
    --semantic-uncertain: #fbbf24;
    --semantic-evidence: #60a5fa;
    --semantic-claim: #c084fc;
    --semantic-positive: #4ade80;
    --semantic-outcome: #22d3ee;
    --accent-1: #93c5fd;
    --accent-2: #60a5fa;
    --accent-3: #818cf8;
    --accent-4: #a78bfa;
    --accent-5: #38bdf8;
    --accent-6: #fb923c;
}
:root[data-theme="light"] {
    --background: #f8fafc;
    --panel: #ffffff;
    --primary-text: #0f172a;
    --muted-text: #64748b;
    --inverse-text: #ffffff;
    --border: #e2e8f0;
    --shadow-color: #000000;
    --icon-pad-bg: #1e293b;
    --art-glow: #0891b2;
    --art-glow-opacity: 0.10;
    --art-sheen: #ffffff;
    --art-sheen-opacity: 0.34;
    --art-shadow: #0f172a;
    --art-shadow-opacity: 0.14;
    --art-muted-line: #94a3b8;
    --art-panel-tint: #f1f5f9;
    --semantic-risk: #b91c1c;
    --semantic-warning: #c2410c;
    --semantic-uncertain: #a16207;
    --semantic-evidence: #1d4ed8;
    --semantic-claim: #6d28d9;
    --semantic-positive: #15803d;
    --semantic-outcome: #0e7490;
    --accent-1: #1d4ed8;
    --accent-2: #2563eb;
    --accent-3: #4f46e5;
    --accent-4: #6d28d9;
    --accent-5: #0369a1;
    --accent-6: #c2410c;
}</style>
  <rect x="0" y="0" width="1.92E+3" height="1.08E+3" fill="#252a34" stroke="none" id="programmatic_background"/>
  <line id="HEADER_DECOR" x1="960.0" x2="1080.0" y1="125.0" y2="125.0" stroke="var(--accent-1)" stroke-width="6" stroke-linecap="round"/>
  <defs>
    <pattern id="svg205d11be-napkin-hatch" patternUnits="userSpaceOnUse" width="12" height="12">
      <path d="M -3 12 L 12 -3 M 0 15 L 15 0" fill="none" stroke="var(--primary-text)" stroke-width="1" stroke-opacity="0.05"/>
    </pattern>
    <filter id="svg205d11be-shadow" x="-30%" y="-30%" width="160%" height="160%">
      <feDropShadow dx="0" dy="3" stdDeviation="6" flood-color="#000000" flood-opacity="0.10"/>
      <feDropShadow dx="0" dy="8" stdDeviation="12" flood-color="#000000" flood-opacity="0.16"/>
    </filter>
    <marker id="svg205d11be-arrowhead" markerWidth="12" markerHeight="12" refX="10" refY="6" orient="auto">
      <path d="M 0 0 L 12 6 L 0 12 Z" fill="var(--muted-text)"/>
    </marker>
    <radialGradient id="svg205d11be-universal-edge-vignette" cx="50%" cy="50%" r="72%">
      <stop offset="0%" stop-color="var(--background)" stop-opacity="0"/>
      <stop offset="72%" stop-color="var(--background)" stop-opacity="0.12"/>
      <stop offset="100%" stop-color="var(--primary-text)" stop-opacity="0.08"/>
    </radialGradient>
    <linearGradient id="svg205d11be-universal-surface-sheen" x1="0%" y1="0%" x2="100%" y2="100%">
      <stop offset="0%" stop-color="var(--art-sheen)" stop-opacity="var(--art-sheen-opacity)"/>
      <stop offset="46%" stop-color="var(--art-sheen)" stop-opacity="0.035"/>
      <stop offset="100%" stop-color="var(--art-panel-tint)" stop-opacity="0.14"/>
    </linearGradient>
    <radialGradient id="svg205d11be-universal-icon-aura" cx="50%" cy="42%" r="64%">
      <stop offset="0%" stop-color="var(--art-glow)" stop-opacity="var(--art-glow-opacity)"/>
      <stop offset="100%" stop-color="var(--background)" stop-opacity="0"/>
    </radialGradient>
    <filter id="svg205d11be-text-glow" x="-20%" y="-20%" width="140%" height="140%">
      <feDropShadow dx="0" dy="0" stdDeviation="2" flood-color="#000000" flood-opacity="0.4"/>
    </filter>
  </defs>
  <rect width="100%" height="100%" fill="var(--background)" id="CANVAS_BG"/>
  <rect width="100%" height="100%" fill="url(#svg205d11be-napkin-hatch)"/>
  <rect id="UNIVERSAL_EDGE_VIGNETTE" width="100%" height="100%" fill="url(#svg205d11be-universal-edge-vignette)" opacity="0.62"/>
  <text id="TITLE" x="960.0" y="59" text-anchor="middle" font-size="58" font-weight="800" fill="#0f172a" style="font-size: 69px; font-family: 'Segoe UI Variable Display', 'Aptos Display', 'Inter', 'Segoe UI', Helvetica, Arial, sans-serif; font-weight: 800; font-kerning: normal; font-feature-settings: &quot;kern&quot; 1, &quot;liga&quot; 1; letter-spacing:-1.2px;" data-final-font-size="69">
    <tspan x="960.0" dy="70.47px">New England Meteor Airburst Analysis</tspan>
  </text>
  <rect id="TITLE_FRAME" x="134" y="56" width="1652" height="98" fill="none"/>
  <rect x="120" y="165" width="1680" height="820" rx="40" fill="var(--panel)" fill-opacity="0.22" stroke="var(--muted-text)" stroke-width="2.4" opacity="0.92"/>
  <path d="M 262.0 287.0 Q 311.0 287.0 360.0 447.0 Q 409.0 447.0 458.0 607.0 Q 507.0 607.0 556.0 767.0" fill="none" stroke="var(--muted-text)" stroke-width="10" stroke-linecap="round" stroke-linejoin="round" opacity="0.36" marker-end="url(#svg205d11be-arrowhead)"/>
  <g id="DIAGRAM_MAIN" transform="translate(-60 -20) scale(1.08)">
    <g filter="url(#svg205d11be-shadow)">
      <rect id="ITEM_1_BG" x="180.0" y="210.0" width="1030" height="176" rx="24" fill="var(--panel)" fill-opacity="0.97" stroke="var(--accent-1)" stroke-width="2.5"/>
      <rect x="180.0" y="210.0" width="1030" height="18" rx="9" fill="var(--accent-1)" fill-opacity="0.55"/>
      <circle id="ITEM_1_PAD" cx="262.0" cy="287.0" r="40" fill="var(--icon-pad-bg)" opacity="1" fill-opacity="0.9" stroke-width="2" stroke="var(--accent-1)" stroke-opacity="0.72" data-badge-layer="pad"/>
      <circle id="ITEM_1_PAD_INNER" cx="262.0" cy="287.0" r="31.20" fill="var(--accent-1)" fill-opacity="0.12" stroke="none" data-badge-layer="tint"/>
      <circle cx="262.0" cy="287.0" r="32" fill="none" stroke="var(--accent-1)" stroke-width="3" stroke-dasharray="6 4" display="none" data-suppressed-decoration="redundant-badge-ring"/>
      <g id="ITEM_1_ICON" transform="translate(232.0, 257.0)" data-icon-size="60" stroke-linecap="round" stroke-linejoin="round" data-badge-treatment="clean">
        <g transform="translate(-5.617699115044255,-5.617699115044255) scale(2.2088495575221243)">
          <path d="M10.38 29.1038L23.28 30.0938C24.36 30.0938 25.38 29.5838 26.02 28.7138L29.2 24.4138C29.76 23.6438 29.98 22.6738 29.79 21.7438L29.2849 19.1806L28.12 18.3438L27.785 15.6438L28.4809 15.1008L28.45 14.9438C28.29 14.1238 27.84 13.3938 27.17 12.8938L23.38 9.52378L21 5.12378L18.1 4.96378L13.04 3.12378L6.37996 10.1638L4.76996 13.7738L4.50996 14.3538L2.84996 17.4238C2.67996 17.7238 2.86996 20.5038 2.80996 20.8438C2.80996 20.8438 9.75996 29.1038 10.38 29.1038Z" fill="#9B9B9B"/>
          <path d="M20 10.1038L15.95 21.2438L25.66 23.9438L29.29 19.1738L28.48 15.1038L20 10.1038Z" fill="#E6E6E6"/>
          <path d="M2.51 18.3936L2 22.1036H5L5.79 18.9736C5.92 18.4136 6.27 17.9436 6.76 17.6436L11 15.1036L7.95 8.4436L6.57 9.9536C6.44 10.0936 6.34 10.2536 6.26 10.4336L4.51 14.3636L2.85 17.4336C2.68 17.7336 2.57 18.0536 2.51 18.3936Z" fill="#636363"/>
          <path d="M11.51 20.6137L16 25.1037L25.66 23.9437L18.18 20.5437C17.52 20.2437 17.18 19.4937 17.39 18.7937L20 10.1037L21 5.12367C20.16 3.78367 19.77 3.40367 18.33 2.93367C17.37 2.59367 16.54 2.30367 16.54 2.30367C16.54 2.30367 16 2.07367 15.42 2.01367C14.69 1.95367 14.22 2.08367 13.6 2.55367L11 15.1037V19.3837C11 19.8437 11.18 20.2837 11.51 20.6137Z" fill="#D3D3D3"/>
          <path d="M2 22.1038H5L16 25.1038V30.0938L11.75 30.1038C10.6 30.1038 9.47 29.8438 8.44 29.3238L7.07 28.6438C6.36 28.2938 5.72 27.8238 5.16 27.2638L4.23 26.3338C3.42 25.5238 2.81 24.5438 2.45 23.4538L2 22.1038Z" fill="#636363"/>
          <path d="M29.98 22.9136C30.1 23.5736 29.92 24.2536 29.47 24.7636L25.5 29.2836C25.09 29.7536 24.33 30.0936 23.71 30.1036H16V25.1036L25.66 23.9436L29.28 19.1736L29.98 22.9136Z" fill="#9B9B9B"/>
          <path d="M17.51 4.43372L16.4 2.86372C15.72 1.90372 14.33 1.79372 13.51 2.64372L6.75003 9.68372C6.10003 10.3637 6.22003 11.4737 7.00003 11.9937L11 15.1037L15.63 10.8937C16.18 10.3937 16.58 9.75372 16.79 9.03372L17.74 5.78372C17.87 5.32372 17.79 4.82372 17.51 4.43372Z" fill="#9B9B9B"/>
        </g>
      </g>
      <rect x="335.0" y="238.0" width="740.0" height="24" rx="12" fill="var(--accent-1)" fill-opacity="0.08"/>
      <text x="1176.0" y="252.0" text-anchor="end" font-size="17" font-weight="800" fill="var(--accent-1)" opacity="0.72">01</text>
      <text id="ITEM_1_HEAD" x="348.0" y="228.0" text-anchor="start" font-weight="800" font-size="30" fill="var(--accent-1)" data-bg-id="ITEM_1_BG" fill-opacity="1.0" style="font-size: 31px; font-family: 'Segoe UI Variable Display', 'Aptos Display', 'Inter', 'Segoe UI', Helvetica, Arial, sans-serif; font-weight: 700; font-kerning: normal; font-feature-settings: &quot;kern&quot; 1, &quot;liga&quot; 1; letter-spacing:-0.4px;" data-final-font-size="31">
        <tspan x="348.0" dy="25.52px">Atmospheric Entry</tspan>
      </text>
      <rect id="ITEM_1_HEAD_FRAME" x="348.0" y="228.0" width="670.0" height="34" fill="none"/>
      <text id="ITEM_1_BODY" x="348.0" y="270.0" text-anchor="start" font-size="23" fill="var(--primary-text)" data-bg-id="ITEM_1_BG" style="font-size: 23px; font-family: 'Segoe UI Variable Text', 'Aptos', 'Inter', 'Segoe UI', Helvetica, Arial, sans-serif; font-weight: 400; font-kerning: normal; font-feature-settings: &quot;kern&quot; 1, &quot;liga&quot; 1;" data-final-font-size="23">
        <tspan x="348.0" dy="31.91px">Meteoroid enters atmosphere at 75,000 mph speed</tspan>
      </text>
      <rect id="ITEM_1_BODY_FRAME" x="348.0" y="270.0" width="780.0" height="94.0" fill="none"/>
    </g>
    <g filter="url(#svg205d11be-shadow)">
      <rect id="ITEM_2_BG" x="278.0" y="370.0" width="1030" height="176" rx="24" fill="var(--panel)" fill-opacity="0.97" stroke="var(--accent-2)" stroke-width="2.5"/>
      <rect x="278.0" y="370.0" width="1030" height="18" rx="9" fill="var(--accent-2)" fill-opacity="0.55"/>
      <circle id="ITEM_2_PAD" cx="360.0" cy="447.0" r="40" fill="var(--icon-pad-bg)" opacity="1" fill-opacity="0.9" stroke-width="2" stroke="var(--accent-2)" stroke-opacity="0.72" data-badge-layer="pad"/>
      <circle id="ITEM_2_PAD_INNER" cx="360.0" cy="447.0" r="31.20" fill="var(--accent-2)" fill-opacity="0.12" stroke="none" data-badge-layer="tint"/>
      <circle cx="360.0" cy="447.0" r="32" fill="none" stroke="var(--accent-2)" stroke-width="3" stroke-dasharray="6 4" display="none" data-suppressed-decoration="redundant-badge-ring"/>
      <g id="ITEM_2_ICON" transform="translate(330.0, 417.0)" data-icon-size="60" stroke-linecap="round" stroke-linejoin="round" data-badge-treatment="clean">
        <g transform="translate(-5.657142857142858,-5.65714285714286) scale(2.2285714285714286)" vector-effect="non-scaling-stroke" fill="#f1f5f9" fill-opacity="1.0" stroke="none">
          <path fill="#f1f5f9" d="M16 30a5.01 5.01 0 0 1-4.9-4H6c-1.103 0-2-.897-2-2v-5h1c1.654 0 3-1.346 3-3s-1.346-3-3-3H4V8c0-1.103.897-2 2-2h5.1c.465-2.28 2.485-4 4.9-4s4.435 1.72 4.9 4H26c1.103 0 2 .897 2 2v5h-1c-1.654 0-3 1.346-3 3s1.346 3 3 3h1v5c0 1.103-.897 2-2 2h-5.1a5.01 5.01 0 0 1-4.9 4M6 20.9V24h7v1c0 1.654 1.346 3 3 3s3-1.346 3-3v-1h7v-3.1c-2.28-.465-4-2.485-4-4.9s1.72-4.435 4-4.9V8h-7V7c0-1.654-1.346-3-3-3s-3 1.346-3 3v1H6v3.1c2.28.465 4 2.486 4 4.9s-1.72 4.435-4 4.9" vector-effect="non-scaling-stroke" stroke="none"/>
        </g>
      </g>
      <rect x="433.0" y="398.0" width="740.0" height="24" rx="12" fill="var(--accent-2)" fill-opacity="0.08"/>
      <text x="1274.0" y="412.0" text-anchor="end" font-size="17" font-weight="800" fill="var(--accent-2)" opacity="0.72">02</text>
      <text id="ITEM_2_HEAD" x="446.0" y="388.0" text-anchor="start" font-weight="800" font-size="30" fill="var(--accent-2)" data-bg-id="ITEM_2_BG" fill-opacity="1.0" style="font-size: 31px; font-family: 'Segoe UI Variable Display', 'Aptos Display', 'Inter', 'Segoe UI', Helvetica, Arial, sans-serif; font-weight: 700; font-kerning: normal; font-feature-settings: &quot;kern&quot; 1, &quot;liga&quot; 1; letter-spacing:-0.4px;" data-final-font-size="31">
        <tspan x="446.0" dy="25.52px">High Altitude Fragmentation</tspan>
      </text>
      <rect id="ITEM_2_HEAD_FRAME" x="446.0" y="388.0" width="670.0" height="34" fill="none"/>
      <text id="ITEM_2_BODY" x="446.0" y="430.0" text-anchor="start" font-size="23" fill="var(--primary-text)" data-bg-id="ITEM_2_BG" style="font-size: 23px; font-family: 'Segoe UI Variable Text', 'Aptos', 'Inter', 'Segoe UI', Helvetica, Arial, sans-serif; font-weight: 400; font-kerning: normal; font-feature-settings: &quot;kern&quot; 1, &quot;liga&quot; 1;" data-final-font-size="23">
        <tspan x="446.0" dy="31.91px">Object breaks apart at 40 miles above ground</tspan>
      </text>
      <rect id="ITEM_2_BODY_FRAME" x="446.0" y="430.0" width="780.0" height="94.0" fill="none"/>
    </g>
    <g filter="url(#svg205d11be-shadow)">
      <rect id="ITEM_3_BG" x="376.0" y="530.0" width="1030" height="176" rx="24" fill="var(--panel)" fill-opacity="0.97" stroke="var(--accent-3)" stroke-width="2.5"/>
      <rect x="376.0" y="530.0" width="1030" height="18" rx="9" fill="var(--accent-3)" fill-opacity="0.55"/>
      <circle id="ITEM_3_PAD" cx="458.0" cy="607.0" r="40" fill="var(--icon-pad-bg)" opacity="1" fill-opacity="0.9" stroke-width="2" stroke="var(--accent-3)" stroke-opacity="0.72" data-badge-layer="pad"/>
      <circle id="ITEM_3_PAD_INNER" cx="458.0" cy="607.0" r="31.20" fill="var(--accent-3)" fill-opacity="0.12" stroke="none" data-badge-layer="tint"/>
      <circle cx="458.0" cy="607.0" r="32" fill="none" stroke="var(--accent-3)" stroke-width="3" stroke-dasharray="6 4" display="none" data-suppressed-decoration="redundant-badge-ring"/>
      <g id="ITEM_3_ICON" transform="translate(428.0, 577.0)" data-icon-size="60" stroke-linecap="round" stroke-linejoin="round" data-badge-treatment="clean">
        <g transform="translate(-5.65714285714286,-5.1) scale(2.2285714285714286)">
          <path d="M25.0642 23.4047L23.9155 20.598L22.2011 21.2996L23.3511 24.1097L23.3525 24.113C23.5183 24.5137 23.3281 24.9545 22.9426 25.1096L18.0368 27.1219L18.0342 27.123C17.6335 27.2888 17.1927 27.0987 17.0376 26.7132L15.8855 23.898L14.1711 24.5997L15.3202 27.4074C15.8659 28.7594 17.403 29.3881 18.741 28.8353L18.7425 28.8347L23.6372 26.8268C24.9889 26.281 25.6173 24.7444 25.065 23.4066L25.0642 23.4047ZM8 23.5L9.70824 26.7789C10.3282 27.4289 10.2982 28.4589 9.63824 29.0689C8.98824 29.6789 7.95824 29.6489 7.34824 28.9989L2.43824 23.7889C1.82824 23.1389 1.85824 22.1089 2.50824 21.4989C3.15824 20.8889 4.18824 20.9189 4.79824 21.5689L8 23.5Z" fill="#FFB02E"/>
          <path d="M29.2283 15.0788L17.6783 2.82884C16.4083 1.47884 14.1783 1.82887 13.3883 3.50887L4.79834 21.5689L9.76834 26.8389L28.3083 19.3288C30.0183 18.6388 30.4983 16.4288 29.2283 15.0788Z" fill="#F9C23C"/>
        </g>
      </g>
      <rect x="531.0" y="558.0" width="740.0" height="24" rx="12" fill="var(--accent-3)" fill-opacity="0.08"/>
      <text x="1372.0" y="572.0" text-anchor="end" font-size="17" font-weight="800" fill="var(--accent-3)" opacity="0.72">03</text>
      <text id="ITEM_3_HEAD" x="544.0" y="548.0" text-anchor="start" font-weight="800" font-size="30" fill="var(--accent-3)" data-bg-id="ITEM_3_BG" fill-opacity="1.0" style="font-size: 31px; font-family: 'Segoe UI Variable Display', 'Aptos Display', 'Inter', 'Segoe UI', Helvetica, Arial, sans-serif; font-weight: 700; font-kerning: normal; font-feature-settings: &quot;kern&quot; 1, &quot;liga&quot; 1; letter-spacing:-0.4px;" data-final-font-size="31">
        <tspan x="544.0" dy="25.52px">Pressure Wave Propagation</tspan>
      </text>
      <rect id="ITEM_3_HEAD_FRAME" x="544.0" y="548.0" width="670.0" height="34" fill="none"/>
      <text id="ITEM_3_BODY" x="544.0" y="590.0" text-anchor="start" font-size="23" fill="var(--primary-text)" data-bg-id="ITEM_3_BG" style="font-size: 23px; font-family: 'Segoe UI Variable Text', 'Aptos', 'Inter', 'Segoe UI', Helvetica, Arial, sans-serif; font-weight: 400; font-kerning: normal; font-feature-settings: &quot;kern&quot; 1, &quot;liga&quot; 1;" data-final-font-size="23">
        <tspan x="544.0" dy="31.91px">Shock wave travels across multiple state borders</tspan>
      </text>
      <rect id="ITEM_3_BODY_FRAME" x="544.0" y="590.0" width="780.0" height="94.0" fill="none"/>
    </g>
    <g filter="url(#svg205d11be-shadow)">
      <rect id="ITEM_4_BG" x="474.0" y="690.0" width="1030" height="176" rx="24" fill="var(--panel)" fill-opacity="0.97" stroke="var(--accent-4)" stroke-width="2.5"/>
      <rect x="474.0" y="690.0" width="1030" height="18" rx="9" fill="var(--accent-4)" fill-opacity="0.55"/>
      <circle id="ITEM_4_PAD" cx="556.0" cy="767.0" r="40" fill="var(--icon-pad-bg)" opacity="1" fill-opacity="0.9" stroke-width="2" stroke="var(--accent-1)" stroke-opacity="0.72" data-badge-layer="pad"/>
      <circle id="ITEM_4_PAD_INNER" cx="556.0" cy="767.0" r="31.20" fill="var(--accent-1)" fill-opacity="0.12" stroke="none" data-badge-layer="tint"/>
      <circle cx="556.0" cy="767.0" r="32" fill="none" stroke="var(--accent-4)" stroke-width="3" stroke-dasharray="6 4" display="none" data-suppressed-decoration="redundant-badge-ring"/>
      <g id="ITEM_4_ICON" transform="translate(526.0, 737.0)" data-icon-size="60" stroke-linecap="round" stroke-linejoin="round" data-badge-treatment="clean">
        <g transform="translate(-4.542857142857146,-5.378571428571429) scale(2.2285714285714286)">
          <path d="M14.3675 5.87431L10.6615 3.30015C10.2652 3.02489 9.72534 3.12861 9.44275 3.51981L1.77125 14.5646C1.496 14.9609 1.59462 15.5081 1.99091 15.7833L5.69698 18.3575C6.09327 18.6328 6.64046 18.5341 6.91571 18.1378L14.5872 7.09304C14.8625 6.69675 14.7638 6.14956 14.3675 5.87431ZM16.6809 25.9761L20.3869 28.5502C20.7832 28.8255 21.3253 28.7342 21.6006 28.3379L29.272 17.2931C29.5473 16.8968 29.4487 16.3496 29.0524 16.0744L25.3463 13.5002C24.95 13.225 24.4028 13.3236 24.1276 13.7199L16.4612 24.7573C16.1859 25.1536 16.2846 25.7008 16.6809 25.9761Z" fill="#635994"/>
          <path d="M21.4869 12.9951L19.3688 10.6316L16.2031 9.32501L15.1836 10.7928L17.5195 13.2275L20.4675 14.4628L21.4869 12.9951Z" fill="#998EA4"/>
          <path d="M12.4766 13.2646L11.0088 12.2451L10.4991 12.979L11.9668 13.9985L12.4766 13.2646ZM19.0888 17.8571L20.5566 18.8765L20.0468 19.6104L18.5791 18.5909L19.0888 17.8571ZM13.5848 19.4848L12.8509 18.9751L11.3217 21.1767L12.0556 21.6865L13.5848 19.4848ZM9.29531 24.1097L10.0365 24.6246L8.50732 26.8262L7.76611 26.3114L9.29531 24.1097Z" fill="#1C1C1C"/>
          <path d="M12.5996 6.82217L10.3979 5.29297L8.86874 7.49459L11.0704 9.02379L12.5996 6.82217ZM7.84939 8.96277L10.051 10.492L8.52181 12.6936L6.32019 11.1644L7.84939 8.96277ZM7.50231 14.1613L5.30069 12.6321L3.77148 14.8337L5.97311 16.3629L7.50231 14.1613ZM25.0828 15.4929L27.2844 17.0221L25.7552 19.2237L23.5536 17.6945L25.0828 15.4929ZM22.5342 19.1624L24.7358 20.6916L23.2066 22.8932L21.005 21.364L22.5342 19.1624ZM22.1872 24.3606L19.9855 22.8314L18.4563 25.033L20.658 26.5622L22.1872 24.3606Z" fill="#BCA4EB"/>
          <path d="M16.1371 9.27938L21.5458 13.0361C21.876 13.2655 22.3311 13.1899 22.5531 12.8546L23.2514 11.8492C23.4808 11.5189 23.4001 11.0712 23.0699 10.8418L17.6612 7.0851C17.331 6.85572 16.8833 6.9364 16.6539 7.26665L15.9556 8.27206C15.7262 8.6023 15.8069 9.05 16.1371 9.27938ZM8.98669 27.7029C8.56441 28.3108 7.72923 28.4613 7.12127 28.0391C6.51331 27.6168 6.36279 26.7816 6.78506 26.1737C7.20734 25.5657 8.04251 25.4152 8.65048 25.8374C9.25844 26.2597 9.40896 27.0949 8.98669 27.7029ZM12.3559 26.2356L6.9766 22.4993C6.40418 22.1017 6.3806 21.2585 6.9266 20.8327C8.43104 19.6691 10.5674 19.5537 12.2112 20.6955C13.8551 21.8373 14.4928 23.8795 13.9278 25.6955C13.7216 26.3683 12.9283 26.6332 12.3559 26.2356ZM10.5301 17.3519L15.9387 21.1087C16.269 21.3381 16.724 21.2625 16.946 20.9271L20.7028 15.5185C20.9322 15.1882 20.8515 14.7405 20.5212 14.5111L15.1126 10.7544C14.7823 10.525 14.3346 10.6057 14.1053 10.936L10.3485 16.3446C10.1191 16.6749 10.1998 17.1226 10.5301 17.3519Z" fill="#B4ACBC"/>
        </g>
      </g>
      <rect x="629.0" y="718.0" width="740.0" height="24" rx="12" fill="var(--accent-4)" fill-opacity="0.08"/>
      <text x="1470.0" y="732.0" text-anchor="end" font-size="17" font-weight="800" fill="var(--accent-4)" opacity="0.72">04</text>
      <text id="ITEM_4_HEAD" x="642.0" y="708.0" text-anchor="start" font-weight="800" font-size="30" fill="var(--accent-1)" data-bg-id="ITEM_4_BG" fill-opacity="1.0" style="font-size: 31px; font-family: 'Segoe UI Variable Display', 'Aptos Display', 'Inter', 'Segoe UI', Helvetica, Arial, sans-serif; font-weight: 700; font-kerning: normal; font-feature-settings: &quot;kern&quot; 1, &quot;liga&quot; 1; letter-spacing:-0.4px;" data-final-font-size="31">
        <tspan x="642.0" dy="25.52px">Satellite Confirmation</tspan>
      </text>
      <rect id="ITEM_4_HEAD_FRAME" x="642.0" y="708.0" width="670.0" height="34" fill="none"/>
      <text id="ITEM_4_BODY" x="642.0" y="750.0" text-anchor="start" font-size="23" fill="var(--primary-text)" data-bg-id="ITEM_4_BG" style="font-size: 23px; font-family: 'Segoe UI Variable Text', 'Aptos', 'Inter', 'Segoe UI', Helvetica, Arial, sans-serif; font-weight: 400; font-kerning: normal; font-feature-settings: &quot;kern&quot; 1, &quot;liga&quot; 1;" data-final-font-size="23">
        <tspan x="642.0" dy="31.91px">GOES GLM sensors record the atmospheric flash</tspan>
      </text>
      <rect id="ITEM_4_BODY_FRAME" x="642.0" y="750.0" width="780.0" height="94.0" fill="none"/>
    </g>
  </g>
  <text id="SOURCE_NOTE" x="134.0" y="1058.0" fill="var(--muted-text)" opacity="1" style="font-family: var(--font-family); font-size: 20px;">Source: Meteor fireball triggered loud boom across New England, NASA confirms By Reuters</text>
</svg>
