<?xml version='1.0' encoding='utf-8'?>
<svg xmlns="http://www.w3.org/2000/svg" width="1920" height="1080" viewBox="0 0 1920 1080" data-theme="light" data-semantic-intent="uncertain_compare" data-relation-type="comparison" data-site-visual-identity="signal-cobalt">
  <style>
        @font-face {
            font-family: 'Inter';
            src: url('assets/fonts/Inter-Regular.ttf') format('truetype');
            font-weight: 400;
            font-style: normal;
            font-display: swap;
        }
        @font-face {
            font-family: 'Inter';
            src: url('assets/fonts/Inter-Bold.ttf') format('truetype');
            font-weight: 600;
            font-style: normal;
            font-display: swap;
        }
        @font-face {
            font-family: 'Inter';
            src: url('assets/fonts/Inter-Bold.ttf') format('truetype');
            font-weight: 800;
            font-style: normal;
            font-display: swap;
        }
        
:root {
    --background: #f8fafc;
    --panel: #ffffff;
    --primary-text: #0f172a;
    --muted-text: #64748b;
    --inverse-text: #ffffff;
    --border: #e2e8f0;
    --shadow-color: #000000;
    --icon-pad-bg: #1e293b;
    --art-glow: #0891b2;
    --art-glow-opacity: 0.10;
    --art-sheen: #ffffff;
    --art-sheen-opacity: 0.34;
    --art-shadow: #0f172a;
    --art-shadow-opacity: 0.14;
    --art-muted-line: #94a3b8;
    --art-panel-tint: #f1f5f9;
    --semantic-risk: #b91c1c;
    --semantic-warning: #c2410c;
    --semantic-uncertain: #a16207;
    --semantic-evidence: #1d4ed8;
    --semantic-claim: #6d28d9;
    --semantic-positive: #15803d;
    --semantic-outcome: #0e7490;
    --font-family: 'Inter', 'Segoe UI', 'Kalam', Roboto, Helvetica, Arial, sans-serif;
    --radius-xl: 16px;
    --font-family-headline: 'Segoe UI Variable Display', 'Aptos Display', 'Inter', 'Segoe UI', Helvetica, Arial, sans-serif;
    --font-family-body: 'Segoe UI Variable Text', 'Aptos', 'Inter', 'Segoe UI', Helvetica, Arial, sans-serif;
    --font-heading: var(--font-family-headline);
    --font-body: var(--font-family-body);
    --font-size-h1: 64px;
    --font-size-h2: 42px;
    --font-size-h3: 29px;
    --font-size-body: 21px;
    --font-size-caption: 17px;
    --secondary-text: var(--muted-text);
    --panel-border: var(--border);
    --font-weight-normal: 400;
    --font-weight-medium: 500;
    --font-weight-semibold: 600;
    --font-weight-bold: 700;
    --spacing-gutter-pct: 0.07;
    --spacing-top-pct: 0.15;
    --spacing-bottom-pct: 0.07;
    --spacing-title-y-pct: 0.055;
    --accent-1: #1d4ed8;
    --accent-2: #2563eb;
    --accent-3: #4f46e5;
    --accent-4: #6d28d9;
    --accent-5: #0369a1;
    --accent-6: #c2410c;
}
:root[data-theme="dark"] {
    --background: #0f172a;
    --panel: #1e293b;
    --primary-text: #f1f5f9;
    --muted-text: #94a3b8;
    --inverse-text: #0f172a;
    --border: #334155;
    --shadow-color: #000000;
    --icon-pad-bg: #1e293b;
    --art-glow: #7dd3fc;
    --art-glow-opacity: 0.18;
    --art-sheen: #ffffff;
    --art-sheen-opacity: 0.18;
    --art-shadow: #000000;
    --art-shadow-opacity: 0.28;
    --art-muted-line: #64748b;
    --art-panel-tint: #1e293b;
    --semantic-risk: #f87171;
    --semantic-warning: #fb923c;
    --semantic-uncertain: #fbbf24;
    --semantic-evidence: #60a5fa;
    --semantic-claim: #c084fc;
    --semantic-positive: #4ade80;
    --semantic-outcome: #22d3ee;
    --accent-1: #93c5fd;
    --accent-2: #60a5fa;
    --accent-3: #818cf8;
    --accent-4: #a78bfa;
    --accent-5: #38bdf8;
    --accent-6: #fb923c;
}
:root[data-theme="light"] {
    --background: #f8fafc;
    --panel: #ffffff;
    --primary-text: #0f172a;
    --muted-text: #64748b;
    --inverse-text: #ffffff;
    --border: #e2e8f0;
    --shadow-color: #000000;
    --icon-pad-bg: #1e293b;
    --art-glow: #0891b2;
    --art-glow-opacity: 0.10;
    --art-sheen: #ffffff;
    --art-sheen-opacity: 0.34;
    --art-shadow: #0f172a;
    --art-shadow-opacity: 0.14;
    --art-muted-line: #94a3b8;
    --art-panel-tint: #f1f5f9;
    --semantic-risk: #b91c1c;
    --semantic-warning: #c2410c;
    --semantic-uncertain: #a16207;
    --semantic-evidence: #1d4ed8;
    --semantic-claim: #6d28d9;
    --semantic-positive: #15803d;
    --semantic-outcome: #0e7490;
    --accent-1: #1d4ed8;
    --accent-2: #2563eb;
    --accent-3: #4f46e5;
    --accent-4: #6d28d9;
    --accent-5: #0369a1;
    --accent-6: #c2410c;
}</style>
  <rect x="0" y="0" width="1.92E+3" height="1.08E+3" fill="#252a34" stroke="none" id="programmatic_background"/>
  <line id="HEADER_DECOR" x1="960.0" x2="1080.0" y1="95.0" y2="95.0" stroke="var(--accent-1)" stroke-width="6" stroke-linecap="round"/>
  <defs>
    <pattern id="svgde92c270-napkin-hatch" patternUnits="userSpaceOnUse" width="12" height="12">
      <path d="M -3 12 L 12 -3 M 0 15 L 15 0" fill="none" stroke="var(--primary-text)" stroke-width="1" stroke-opacity="0.05"/>
    </pattern>
    <filter id="svgde92c270-shadow" x="-30%" y="-30%" width="160%" height="160%">
      <feDropShadow dx="0" dy="2" stdDeviation="3" flood-color="#000000" flood-opacity="0.08"/>
      <feDropShadow dx="0" dy="6" stdDeviation="10" flood-color="#000000" flood-opacity="0.12"/>
    </filter>
    <radialGradient id="svgde92c270-universal-edge-vignette" cx="50%" cy="50%" r="72%">
      <stop offset="0%" stop-color="var(--background)" stop-opacity="0"/>
      <stop offset="72%" stop-color="var(--background)" stop-opacity="0.12"/>
      <stop offset="100%" stop-color="var(--primary-text)" stop-opacity="0.08"/>
    </radialGradient>
    <linearGradient id="svgde92c270-universal-surface-sheen" x1="0%" y1="0%" x2="100%" y2="100%">
      <stop offset="0%" stop-color="var(--art-sheen)" stop-opacity="var(--art-sheen-opacity)"/>
      <stop offset="46%" stop-color="var(--art-sheen)" stop-opacity="0.035"/>
      <stop offset="100%" stop-color="var(--art-panel-tint)" stop-opacity="0.14"/>
    </linearGradient>
    <radialGradient id="svgde92c270-universal-icon-aura" cx="50%" cy="42%" r="64%">
      <stop offset="0%" stop-color="var(--art-glow)" stop-opacity="var(--art-glow-opacity)"/>
      <stop offset="100%" stop-color="var(--background)" stop-opacity="0"/>
    </radialGradient>
    <radialGradient id="svgde92c270-venn-center-glow" cx="50%" cy="50%" r="60%">
      <stop offset="0%" stop-color="var(--art-glow)" stop-opacity="var(--art-glow-opacity)"/>
      <stop offset="100%" stop-color="var(--background)" stop-opacity="0"/>
    </radialGradient>
    <linearGradient id="svgde92c270-venn-label-sheen" x1="0%" y1="0%" x2="100%" y2="100%">
      <stop offset="0%" stop-color="var(--inverse-text)" stop-opacity="0.14"/>
      <stop offset="100%" stop-color="var(--background)" stop-opacity="0.12"/>
    </linearGradient>
    <filter id="svgde92c270-text-glow" x="-20%" y="-20%" width="140%" height="140%">
      <feDropShadow dx="0" dy="0" stdDeviation="2" flood-color="#000000" flood-opacity="0.4"/>
    </filter>
    <marker id="svgde92c270-arrowhead" markerWidth="10" markerHeight="7" refX="9" refY="3.5" orient="auto" markerUnits="strokeWidth">
      <polygon points="0 0, 10 3.5, 0 7" fill="var(--muted-text)" opacity="0.6"/>
    </marker>
  </defs>
  <rect width="100%" height="100%" fill="var(--background)" id="CANVAS_BG"/>
  <rect width="100%" height="100%" fill="url(#svgde92c270-napkin-hatch)"/>
  <rect id="UNIVERSAL_EDGE_VIGNETTE" width="100%" height="100%" fill="url(#svgde92c270-universal-edge-vignette)" opacity="0.62"/>
  <text id="TITLE" x="960.0" y="59" text-anchor="middle" font-weight="800" font-size="56" fill="#0f172a" style="font-size: 69px; font-family: 'Segoe UI Variable Display', 'Aptos Display', 'Inter', 'Segoe UI', Helvetica, Arial, sans-serif; font-weight: 800; font-kerning: normal; font-feature-settings: &quot;kern&quot; 1, &quot;liga&quot; 1; letter-spacing:-1.2px;" data-final-font-size="69">
    <tspan x="960.0" dy="70.47px">Aircraft vs. Drone Acoustic Profiles</tspan>
  </text>
  <rect id="TITLE_FRAME" x="134" y="35" width="1652" height="80" fill="none"/>
  <g id="DIAGRAM_MAIN" transform="translate(960, 620)">
    <!-- Circle backgrounds -->
    <circle id="ITEM_1_BG" cx="0" cy="-130" r="200" fill="var(--semantic-claim)" fill-opacity="1.0" stroke="var(--border)" stroke-width="2"/>
    <circle id="ITEM_2_BG" cx="130" cy="0" r="200" fill="var(--semantic-claim)" fill-opacity="1.0" stroke="var(--border)" stroke-width="2"/>
    <circle id="ITEM_3_BG" cx="0" cy="130" r="200" fill="var(--semantic-claim)" fill-opacity="1.0" stroke="var(--border)" stroke-width="2"/>
    <circle id="ITEM_4_BG" cx="-130" cy="0" r="200" fill="var(--semantic-claim)" fill-opacity="1.0" stroke="var(--border)" stroke-width="2"/>
    <!-- ITEM 1 - Top (y=-260 to be in non-overlap area) -->
    <circle id="ITEM_1_PAD" cx="0" cy="-260" r="50" fill="var(--icon-pad-bg)" stroke="var(--semantic-claim)" opacity="1" fill-opacity="0.9" stroke-width="2" stroke-opacity="0.72" data-badge-layer="pad"/>
    <circle id="ITEM_1_PAD_INNER" cx="0" cy="-260" r="39.00" fill="var(--semantic-claim)" fill-opacity="0.12" stroke="none" data-badge-layer="tint"/>
    <circle cx="0" cy="-260" r="40" fill="none" stroke="var(--accent-1)" stroke-width="3" stroke-dasharray="6 4" display="none" data-suppressed-decoration="redundant-badge-ring"/>
    <g id="ITEM_1_ICON" transform="translate(-30, -290)" data-icon-size="60" stroke-linecap="round" stroke-linejoin="round" data-badge-treatment="clean">
      <g transform="translate(-14.571428571428571,-14.571428571428571) scale(2.7857142857142856)">
        <path d="M14.9998 5.5L16.6147 4.98752L16.6662 4.93638C17.1092 4.49106 17.1092 3.78065 16.6768 3.33532C16.2443 2.88999 15.5272 2.89002 15.0842 3.32474L14.0215 4.38018L14.9998 5.5ZM28.659 17.9364L27.9804 18.6117L26.9998 17.5L27.4424 16.0851C27.8529 15.9163 28.3427 15.9981 28.6695 16.3353C29.1116 16.77 29.1116 17.4911 28.659 17.9364Z" fill="#9B9B9B"/>
        <path d="M14.1209 28.8751L12.7723 23.3207C14.5105 22.308 16.1288 21.1049 17.5973 19.7113L21.0251 16.4565L24.4676 14.906L26.411 11.3426L28.7058 9.16379C30.394 7.5596 30.434 4.88261 28.8057 3.2283C27.1674 1.57399 24.5001 1.59405 22.8818 3.26841L20.3602 5.89209L16.2607 7.61854L15.2234 11.2368L12.2628 14.3172C10.8643 15.781 9.63554 17.3952 8.6166 19.1297L3.09231 17.7261C2.78264 17.6459 2.46297 17.7361 2.2332 17.9567C1.79366 18.3978 2.03342 18.9493 2.47296 19.4105L12.4227 29.4968C12.9121 30.0181 13.4316 30.1886 13.8712 29.7474C14.1109 29.5068 14.2008 29.186 14.1209 28.8751Z" fill="#CDC4D6"/>
        <path d="M27.7929 5.76988L26.2533 4.21808C25.9708 3.92892 25.503 3.92894 25.2205 4.20846C24.9282 4.48797 24.9282 4.95062 25.2107 5.23013L26.7503 6.78191C27.0329 7.07106 27.5006 7.07107 27.7831 6.79156C28.0657 6.51204 28.0755 6.05904 27.7929 5.76988Z" fill="#00A6ED"/>
        <path d="M15.2156 11.2449L20.3817 5.8697L8.34626 3.051C7.88626 2.941 7.39625 3.011 6.97625 3.241C5.67625 3.971 5.67625 5.83101 6.96625 6.56101L15.2156 11.2449ZM26.4293 11.3253L21.0085 16.4723L25.46 24.7C26.16 26.01 28.03 26.04 28.78 24.76C29.02 24.35 29.1 23.87 29 23.4L26.4293 11.3253ZM8.15643 22.3151C8.57618 21.8934 9.26303 21.8934 9.68277 22.3246C10.1121 22.7463 10.1025 23.4363 9.67323 23.8579L6.83996 26.6849C6.42022 27.1066 5.73337 27.1066 5.31362 26.6754C4.89388 26.2537 4.89388 25.5637 5.32317 25.1421L8.15643 22.3151Z" fill="#0084CE"/>
      </g>
    </g>
    <rect id="ITEM_1_TEXT_BG" x="-208.0" y="-226.0" width="416.0" height="190.0" rx="16" fill="var(--panel)" fill-opacity="0.94" stroke="var(--primary-text)" stroke-opacity="0.12" stroke-width="1.5"/>
    <rect x="-208.0" y="-226.0" width="416.0" height="190.0" rx="16" fill="url(#svgde92c270-venn-label-sheen)" opacity="0.85"/>
    <text id="ITEM_1_HEAD" x="0.0" y="-210.0" text-anchor="middle" font-weight="bold" font-size="34" fill="var(--semantic-claim)" data-bg-id="ITEM_1_TEXT_BG" opacity="0.98" fill-opacity="1.0" style="font-size: 31px; font-family: 'Segoe UI Variable Display', 'Aptos Display', 'Inter', 'Segoe UI', Helvetica, Arial, sans-serif; font-weight: 700; font-kerning: normal; font-feature-settings: &quot;kern&quot; 1, &quot;liga&quot; 1; letter-spacing:-0.4px;" data-final-font-size="31">
      <tspan x="0.0" dy="31.52px">Commercial Jets</tspan>
    </text>
    <rect id="ITEM_1_HEAD_FRAME" x="-170" y="-210" width="340" height="46" fill="none"/>
    <text id="ITEM_1_BODY" x="0.0" y="-152.0" text-anchor="middle" font-size="20" fill="var(--primary-text)" data-bg-id="ITEM_1_TEXT_BG" style="font-size: 23px; font-family: 'Segoe UI Variable Text', 'Aptos', 'Inter', 'Segoe UI', Helvetica, Arial, sans-serif; font-weight: 400; font-kerning: normal; font-feature-settings: &quot;kern&quot; 1, &quot;liga&quot; 1;" data-final-font-size="23">
      <tspan x="0.0" dy="27.82px">Produce deep rumbling sounds</tspan>
      <tspan x="0.0" dy="26.45px">from high altitudes</tspan>
    </text>
    <rect id="ITEM_1_BODY_FRAME" x="-190" y="-152" width="380" height="100" fill="none"/>
    <!-- ITEM 2 - Right (x=260 to be in non-overlap area) -->
    <circle id="ITEM_2_PAD" cx="260" cy="0" r="50" fill="var(--icon-pad-bg)" stroke="var(--semantic-claim)" opacity="1" fill-opacity="0.9" stroke-width="2" stroke-opacity="0.72" data-badge-layer="pad"/>
    <circle id="ITEM_2_PAD_INNER" cx="260" cy="0" r="39.00" fill="var(--semantic-claim)" fill-opacity="0.12" stroke="none" data-badge-layer="tint"/>
    <circle cx="260" cy="0" r="40" fill="none" stroke="var(--accent-2)" stroke-width="3" stroke-dasharray="6 4" display="none" data-suppressed-decoration="redundant-badge-ring"/>
    <g id="ITEM_2_ICON" transform="translate(230, -30)" data-icon-size="60" stroke-linecap="round" stroke-linejoin="round" data-badge-treatment="clean">
      <g transform="translate(-14.777777777777779,-20.55555555555555) scale(2.888888888888889)">
        <path d="M12 6H13V7H22C22.55 7 23 7.45 23 8C23 8.55 22.55 9 22 9H13V10H12V9H4C3.45 9 3 8.55 3 8C3 7.45 3.45 7 4 7H12V6ZM14 23.71L14.71 23L20.21 28.5L19.5 29.21L14 23.71ZM8 23.67H7V29.33H8V23.67Z" fill="#B4ACBC"/>
        <path d="M28.06 7C27.81 7 27.57 7.1 27.39 7.28L23.67 11H10.5C9.67 11 9 11.67 9 12.5C9 13.33 9.67 14 10.5 14H18V19L23 14H27.5C28.33 14 29 13.33 29 12.5V7.93999C29 7.42999 28.58 7 28.06 7Z" fill="#FFB02E"/>
        <path d="M13 5.5C13 5.22 12.78 5 12.5 5C12.22 5 12 5.22 12 5.5V6H13V5.5Z" fill="#F8312F"/>
        <path d="M2 29C2 28.45 2.45 28 3 28H23C23.55 28 24 28.45 24 29C24 29.55 23.55 30 23 30H3C2.45 30 2 29.56 2 29Z" fill="#FF822D"/>
        <path d="M13.41 10H11.59C11.26 10 11 10.27 11 10.59V12H14V10.59C14 10.27 13.73 10 13.41 10Z" fill="#FCD53F"/>
        <path d="M27.39 7.28C27.57 7.1 27.81 7 28.06 7C28.58 7 29 7.42999 29 7.93999V12.5C29 13.33 28.33 14 27.5 14H23L19.9373 17.0627C19.9786 17.3694 20 17.6822 20 18C20 21.87 16.8578 25 12.9727 25H8.95706C5.41328 25 2.49191 22.39 2 19L6.59788 16.09L7 11.29C7.63246 11.1 8.25433 11 8.95706 11H23.67L27.39 7.28Z" fill="#FF822D"/>
        <path d="M27 13C27.5523 13 28 12.5523 28 12C28 11.4477 27.5523 11 27 11C26.4477 11 26 11.4477 26 12C26 12.5523 26.4477 13 27 13Z" fill="#E6E6E6"/>
        <path d="M2.06999 19C2.01999 18.67 2 18.34 2 18C2 14.83 4.11 12.15 7 11.29L11.16 17.71C11.52 18.27 11.12 19 10.46 19H2.06999ZM12.47 16.64L10.29 13.29C9.93 12.74 10.33 12 10.99 12.01H13.17C13.63 12.01 14 12.38 14 12.84V16.19C14 17.02 12.92 17.34 12.47 16.64Z" fill="#00A6ED"/>
        <path d="M2.60693 21C2.96693 21.75 3.45203 22.43 4.03203 23H17.89C18.48 22.43 18.9781 21.75 19.3281 21H2.60693Z" fill="#FCD53F"/>
      </g>
    </g>
    <rect id="ITEM_2_TEXT_BG" x="352.0" y="-66.0" width="416.0" height="202.0" rx="16" fill="var(--panel)" fill-opacity="0.94" stroke="var(--primary-text)" stroke-opacity="0.12" stroke-width="1.5"/>
    <rect x="352.0" y="-66.0" width="416.0" height="202.0" rx="16" fill="url(#svgde92c270-venn-label-sheen)" opacity="0.85"/>
    <text id="ITEM_2_HEAD" x="370.0" y="-50.0" text-anchor="start" font-weight="bold" font-size="36" fill="var(--semantic-claim)" data-bg-id="ITEM_2_TEXT_BG" opacity="0.98" fill-opacity="1.0" style="font-size: 31px; font-family: 'Segoe UI Variable Display', 'Aptos Display', 'Inter', 'Segoe UI', Helvetica, Arial, sans-serif; font-weight: 700; font-kerning: normal; font-feature-settings: &quot;kern&quot; 1, &quot;liga&quot; 1; letter-spacing:-0.4px;" data-final-font-size="31">
      <tspan x="370.0" dy="33.52px">Helicopters</tspan>
    </text>
    <rect id="ITEM_2_HEAD_FRAME" x="370" y="-50" width="220" height="50" fill="none"/>
    <text id="ITEM_2_BODY" x="370.0" y="0.0" text-anchor="start" font-size="20" fill="var(--primary-text)" data-bg-id="ITEM_2_TEXT_BG" style="font-size: 23px; font-family: 'Segoe UI Variable Text', 'Aptos', 'Inter', 'Segoe UI', Helvetica, Arial, sans-serif; font-weight: 400; font-kerning: normal; font-feature-settings: &quot;kern&quot; 1, &quot;liga&quot; 1;" data-final-font-size="23">
      <tspan x="370.0" dy="31.82px">Generate distinctive low-frequency</tspan>
      <tspan x="370.0" dy="26.45px">rotor beats and hovering noise</tspan>
    </text>
    <rect id="ITEM_2_BODY_FRAME" x="370" y="0" width="380" height="120" fill="none"/>
    <!-- ITEM 3 - Bottom (y=260 to be in non-overlap area) -->
    <circle id="ITEM_3_PAD" cx="0" cy="220" r="50" fill="var(--icon-pad-bg)" stroke="var(--semantic-claim)" opacity="1" fill-opacity="0.9" stroke-width="2" stroke-opacity="0.72" data-badge-layer="pad"/>
    <circle id="ITEM_3_PAD_INNER" cx="0" cy="220" r="39.00" fill="var(--semantic-claim)" fill-opacity="0.12" stroke="none" data-badge-layer="tint"/>
    <circle cx="0" cy="220" r="40" fill="none" stroke="var(--accent-3)" stroke-width="3" stroke-dasharray="6 4" display="none" data-suppressed-decoration="redundant-badge-ring"/>
    <g id="ITEM_3_ICON" transform="translate(-30, 190)" data-icon-size="60" stroke-linecap="round" stroke-linejoin="round" data-badge-treatment="clean">
      <g transform="translate(-12.305084745762713,-12.305084745762713) scale(3.5254237288135593)" vector-effect="non-scaling-stroke" fill="#f1f5f9" fill-opacity="1.0" stroke="none">
        <path fill="#f1f5f9" d="M5.5 1C8 1 10 3 10 5.5c0 .88-.25 1.7-.69 2.4l.1.1h5.18l.1-.1c-.44-.7-.69-1.52-.69-2.4C14 3 16 1 18.5 1S23 3 23 5.5S21 10 18.5 10c-.88 0-1.7-.25-2.4-.69l-1.1 1.1v3.18l1.1 1.1c.7-.44 1.52-.69 2.4-.69c2.5 0 4.5 2 4.5 4.5S21 23 18.5 23S14 21 14 18.5c0-.88.25-1.7.69-2.4l-.1-.1H9.41l-.1.1c.44.7.69 1.52.69 2.4C10 21 8 23 5.5 23S1 21 1 18.5S3 14 5.5 14c.88 0 1.7.25 2.4.69l1.1-1.1v-3.18l-1.1-1.1c-.7.44-1.52.69-2.4.69C3 10 1 8 1 5.5S3 1 5.5 1m0 2A2.5 2.5 0 0 0 3 5.5A2.5 2.5 0 0 0 5.5 8A2.5 2.5 0 0 0 8 5.5A2.5 2.5 0 0 0 5.5 3m0 13A2.5 2.5 0 0 0 3 18.5A2.5 2.5 0 0 0 5.5 21A2.5 2.5 0 0 0 8 18.5A2.5 2.5 0 0 0 5.5 16m13-13A2.5 2.5 0 0 0 16 5.5A2.5 2.5 0 0 0 18.5 8A2.5 2.5 0 0 0 21 5.5A2.5 2.5 0 0 0 18.5 3m0 13a2.5 2.5 0 0 0-2.5 2.5a2.5 2.5 0 0 0 2.5 2.5a2.5 2.5 0 0 0 2.5-2.5a2.5 2.5 0 0 0-2.5-2.5M3.91 17.25l1.13.66c.13-.1.29-.16.46-.16a.75.75 0 0 1 .75.75l-.01.1l1.13.65l-.28.5l-1.13-.66c-.13.1-.29.16-.46.16a.75.75 0 0 1-.75-.75l.01-.1l-1.13-.65zm-.28-11l1.13-.65l-.01-.1a.75.75 0 0 1 .75-.75c.17 0 .33.06.46.16l1.13-.66l.28.5l-1.13.65l.01.1a.75.75 0 0 1-.75.75c-.17 0-.33-.06-.46-.16l-1.13.66zm13.28-2l1.13.66c.13-.1.29-.16.46-.16a.75.75 0 0 1 .75.75l-.01.1l1.13.65l-.28.5l-1.13-.66c-.13.1-.29.16-.46.16a.75.75 0 0 1-.75-.75l.01-.1l-1.13-.65zm-.28 15l1.12-.75a.75.75 0 0 1 .75-.75c.17 0 .33.06.46.16l1.13-.66l.28.5l-1.12.75a.75.75 0 0 1-.75.75c-.17 0-.33-.06-.46-.16l-1.13.66z" vector-effect="non-scaling-stroke" stroke="none"/>
      </g>
    </g>
    <rect id="ITEM_3_TEXT_BG" x="-208.0" y="256.0" width="416.0" height="202.0" rx="16" fill="var(--panel)" fill-opacity="0.94" stroke="var(--primary-text)" stroke-opacity="0.12" stroke-width="1.5"/>
    <rect x="-208.0" y="256.0" width="416.0" height="202.0" rx="16" fill="url(#svgde92c270-venn-label-sheen)" opacity="0.85"/>
    <text id="ITEM_3_HEAD" x="0.0" y="272.0" text-anchor="middle" font-weight="bold" font-size="36" fill="var(--semantic-claim)" data-bg-id="ITEM_3_TEXT_BG" opacity="0.98" fill-opacity="1.0" style="font-size: 31px; font-family: 'Segoe UI Variable Display', 'Aptos Display', 'Inter', 'Segoe UI', Helvetica, Arial, sans-serif; font-weight: 700; font-kerning: normal; font-feature-settings: &quot;kern&quot; 1, &quot;liga&quot; 1; letter-spacing:-0.4px;" data-final-font-size="31">
      <tspan x="0.0" dy="32.52px">Consumer Drones</tspan>
    </text>
    <rect id="ITEM_3_HEAD_FRAME" x="-140" y="272" width="280" height="48" fill="none"/>
    <text id="ITEM_3_BODY" x="0.0" y="322.0" text-anchor="middle" font-size="20" fill="var(--primary-text)" data-bg-id="ITEM_3_TEXT_BG" style="font-size: 23px; font-family: 'Segoe UI Variable Text', 'Aptos', 'Inter', 'Segoe UI', Helvetica, Arial, sans-serif; font-weight: 400; font-kerning: normal; font-feature-settings: &quot;kern&quot; 1, &quot;liga&quot; 1;" data-final-font-size="23">
      <tspan x="0.0" dy="31.82px">Emit high-pitched buzzing</tspan>
      <tspan x="0.0" dy="26.45px">at low altitudes</tspan>
    </text>
    <rect id="ITEM_3_BODY_FRAME" x="-190" y="322" width="380" height="120" fill="none"/>
    <!-- ITEM 4 - Left (x=-260 to be in non-overlap area) -->
    <circle id="ITEM_4_PAD" cx="-260" cy="0" r="50" fill="var(--icon-pad-bg)" stroke="var(--semantic-claim)" opacity="1" fill-opacity="0.9" stroke-width="2" stroke-opacity="0.72" data-badge-layer="pad"/>
    <circle id="ITEM_4_PAD_INNER" cx="-260" cy="0" r="39.00" fill="var(--semantic-claim)" fill-opacity="0.12" stroke="none" data-badge-layer="tint"/>
    <circle cx="-260" cy="0" r="40" fill="none" stroke="var(--accent-4)" stroke-width="3" stroke-dasharray="6 4" display="none" data-suppressed-decoration="redundant-badge-ring"/>
    <g id="ITEM_4_ICON" transform="translate(-290, -30)" data-icon-size="60" stroke-linecap="round" stroke-linejoin="round" data-badge-treatment="clean">
      <g transform="translate(-13.789473684210527,-13.789473684210527) scale(0.17105263157894737)" vector-effect="non-scaling-stroke" fill="#f1f5f9" fill-opacity="1.0" stroke="none">
        <path fill="#f1f5f9" d="M461.5 31.85c-5 1.2-10.4 3.4-16.4 6.4c-12 6-26.7 15.3-42.1 26.1c-26.7 18.7-55.5 41.75-75 59.95l39.8 19.9l19.9 39.8c18.2-19.5 41.2-48.3 59.9-75c10.8-15.35 20.1-30.05 26.2-42.15c3-6 5.2-11.3 6.3-16.3c1.2-5 1.9-10.9-2.9-15.7c-4.8-4.56-10-4.25-15.7-3m-14.8 33.4c4.9 4.71 5.6 12.1 3.8 18.7s-6.1 13.3-12.9 20.15l-42.2 42.2l-29.6-29.7L408 74.45c6.8-6.8 13.5-11.06 20.1-12.9c6.1-1.71 14.3-.44 18.6 3.7M183.2 109.5l-21.3 21.2l45.6 5v-26.2zm129.9 25.2l-43.5 21.8l-153 200.1l13.7 13.8l97.5-97.5l11.3 11.3c-32.5 32.5-65 65.1-97.5 97.6l13.8 13.6l200.1-153l21.8-43.5l-21.4-42.8zm-256.59.4l7.4 22.2l120.99 83.5l64.5-84.3zm38.1 62.8l-13.1 13.2l24.39 24.3l17.6-17.5zm260.89 64.7l-84.3 64.5l83.5 121l22.2 7.3zm-190.9 4.8l-110.99 9.1l-22.6 22.6l82.39 35.4zm212.1 41.2l4.6 41.5l17.1-17.2v-24.3zm-132.1 38.8l-67 51.2l35.3 82.4l22.6-22.6zm-138.7 21.2l-13.09 13.1l37.49 37.4l13.1-13zm188.2 19.9l-17.5 17.6l24.3 24.3l13.2-13.1z" vector-effect="non-scaling-stroke" stroke="none"/>
      </g>
    </g>
    <rect id="ITEM_4_TEXT_BG" x="-768.0" y="-66.0" width="416.0" height="202.0" rx="16" fill="var(--panel)" fill-opacity="0.94" stroke="var(--primary-text)" stroke-opacity="0.12" stroke-width="1.5"/>
    <rect x="-768.0" y="-66.0" width="416.0" height="202.0" rx="16" fill="url(#svgde92c270-venn-label-sheen)" opacity="0.85"/>
    <text id="ITEM_4_HEAD" x="-370.0" y="-50.0" text-anchor="end" font-weight="bold" font-size="36" fill="var(--semantic-claim)" data-bg-id="ITEM_4_TEXT_BG" opacity="0.98" fill-opacity="1.0" style="font-size: 28px; font-family: 'Segoe UI Variable Display', 'Aptos Display', 'Inter', 'Segoe UI', Helvetica, Arial, sans-serif; font-weight: 700; font-kerning: normal; font-feature-settings: &quot;kern&quot; 1, &quot;liga&quot; 1; letter-spacing:-0.4px;" data-final-font-size="28">
      <tspan x="-370.0" dy="31.30px">Military Flights</tspan>
    </text>
    <rect id="ITEM_4_HEAD_FRAME" x="-590" y="-50" width="220" height="50" fill="none"/>
    <text id="ITEM_4_BODY" x="-370.0" y="0.0" text-anchor="end" font-size="20" fill="var(--primary-text)" data-bg-id="ITEM_4_TEXT_BG" style="font-size: 23px; font-family: 'Segoe UI Variable Text', 'Aptos', 'Inter', 'Segoe UI', Helvetica, Arial, sans-serif; font-weight: 400; font-kerning: normal; font-feature-settings: &quot;kern&quot; 1, &quot;liga&quot; 1;" data-final-font-size="23">
      <tspan x="-370.0" dy="31.82px">Operate outside standard routes</tspan>
      <tspan x="-370.0" dy="26.45px">and may lack transponders</tspan>
    </text>
    <rect id="ITEM_4_BODY_FRAME" x="-750" y="0" width="380" height="120" fill="none"/>
  </g>
  <text id="SOURCE_NOTE" x="134.0" y="1058.0" fill="var(--muted-text)" opacity="1" style="font-family: var(--font-family); font-size: 20px;">Source: Automatic Dependent Surveillance</text>
  <text id="EDITORIAL_NOTE" x="1786.0" y="1058.0" fill="var(--semantic-uncertain)" opacity="1" style="font-family: var(--font-family); font-size: 20px;" text-anchor="end">Interpretations remain disputed; wording reflects source uncertainty.</text>
</svg>
