<?xml version='1.0' encoding='utf-8'?>
<svg xmlns="http://www.w3.org/2000/svg" width="1920" height="1080" viewBox="0 0 1920 1080" data-theme="dark" data-semantic-intent="taxonomy_list" data-relation-type="taxonomy" data-site-visual-identity="signal-cobalt">
  <style>
        @font-face {
            font-family: 'Inter';
            src: url('assets/fonts/Inter-Regular.ttf') format('truetype');
            font-weight: 400;
            font-style: normal;
            font-display: swap;
        }
        @font-face {
            font-family: 'Inter';
            src: url('assets/fonts/Inter-Bold.ttf') format('truetype');
            font-weight: 600;
            font-style: normal;
            font-display: swap;
        }
        @font-face {
            font-family: 'Inter';
            src: url('assets/fonts/Inter-Bold.ttf') format('truetype');
            font-weight: 800;
            font-style: normal;
            font-display: swap;
        }
        
:root {
    --background: #0f172a;
    --panel: #1e293b;
    --primary-text: #f1f5f9;
    --muted-text: #94a3b8;
    --inverse-text: #0f172a;
    --border: #334155;
    --shadow-color: #000000;
    --icon-pad-bg: #1e293b;
    --art-glow: #7dd3fc;
    --art-glow-opacity: 0.18;
    --art-sheen: #ffffff;
    --art-sheen-opacity: 0.18;
    --art-shadow: #000000;
    --art-shadow-opacity: 0.28;
    --art-muted-line: #64748b;
    --art-panel-tint: #1e293b;
    --semantic-risk: #f87171;
    --semantic-warning: #fb923c;
    --semantic-uncertain: #fbbf24;
    --semantic-evidence: #60a5fa;
    --semantic-claim: #c084fc;
    --semantic-positive: #4ade80;
    --semantic-outcome: #22d3ee;
    --font-family: 'Inter', 'Segoe UI', 'Kalam', Roboto, Helvetica, Arial, sans-serif;
    --radius-xl: 16px;
    --font-family-headline: 'Segoe UI Variable Display', 'Aptos Display', 'Inter', 'Segoe UI', Helvetica, Arial, sans-serif;
    --font-family-body: 'Segoe UI Variable Text', 'Aptos', 'Inter', 'Segoe UI', Helvetica, Arial, sans-serif;
    --font-heading: var(--font-family-headline);
    --font-body: var(--font-family-body);
    --font-size-h1: 64px;
    --font-size-h2: 42px;
    --font-size-h3: 29px;
    --font-size-body: 21px;
    --font-size-caption: 17px;
    --secondary-text: var(--muted-text);
    --panel-border: var(--border);
    --font-weight-normal: 400;
    --font-weight-medium: 500;
    --font-weight-semibold: 600;
    --font-weight-bold: 700;
    --spacing-gutter-pct: 0.07;
    --spacing-top-pct: 0.15;
    --spacing-bottom-pct: 0.07;
    --spacing-title-y-pct: 0.055;
    --accent-1: #93c5fd;
    --accent-2: #60a5fa;
    --accent-3: #818cf8;
    --accent-4: #a78bfa;
    --accent-5: #38bdf8;
    --accent-6: #fb923c;
}
:root[data-theme="dark"] {
    --background: #0f172a;
    --panel: #1e293b;
    --primary-text: #f1f5f9;
    --muted-text: #94a3b8;
    --inverse-text: #0f172a;
    --border: #334155;
    --shadow-color: #000000;
    --icon-pad-bg: #1e293b;
    --art-glow: #7dd3fc;
    --art-glow-opacity: 0.18;
    --art-sheen: #ffffff;
    --art-sheen-opacity: 0.18;
    --art-shadow: #000000;
    --art-shadow-opacity: 0.28;
    --art-muted-line: #64748b;
    --art-panel-tint: #1e293b;
    --semantic-risk: #f87171;
    --semantic-warning: #fb923c;
    --semantic-uncertain: #fbbf24;
    --semantic-evidence: #60a5fa;
    --semantic-claim: #c084fc;
    --semantic-positive: #4ade80;
    --semantic-outcome: #22d3ee;
    --accent-1: #93c5fd;
    --accent-2: #60a5fa;
    --accent-3: #818cf8;
    --accent-4: #a78bfa;
    --accent-5: #38bdf8;
    --accent-6: #fb923c;
}
:root[data-theme="light"] {
    --background: #f8fafc;
    --panel: #ffffff;
    --primary-text: #0f172a;
    --muted-text: #64748b;
    --inverse-text: #ffffff;
    --border: #e2e8f0;
    --shadow-color: #000000;
    --icon-pad-bg: #1e293b;
    --art-glow: #0891b2;
    --art-glow-opacity: 0.10;
    --art-sheen: #ffffff;
    --art-sheen-opacity: 0.34;
    --art-shadow: #0f172a;
    --art-shadow-opacity: 0.14;
    --art-muted-line: #94a3b8;
    --art-panel-tint: #f1f5f9;
    --semantic-risk: #b91c1c;
    --semantic-warning: #c2410c;
    --semantic-uncertain: #a16207;
    --semantic-evidence: #1d4ed8;
    --semantic-claim: #6d28d9;
    --semantic-positive: #15803d;
    --semantic-outcome: #0e7490;
    --accent-1: #1d4ed8;
    --accent-2: #2563eb;
    --accent-3: #4f46e5;
    --accent-4: #6d28d9;
    --accent-5: #0369a1;
    --accent-6: #c2410c;
}</style>
  <rect x="0" y="0" width="1.92E+3" height="1.08E+3" fill="#252a34" stroke="none" id="programmatic_background"/>
  <line id="HEADER_DECOR" x1="960.0" x2="1080.0" y1="75.0" y2="75.0" stroke="var(--accent-1)" stroke-width="6" stroke-linecap="round"/>
  <defs>
    <filter id="svg82b45078-neon-glow" x="-50%" y="-50%" width="200%" height="200%">
      <feGaussianBlur stdDeviation="6" result="blur"/>
      <feComposite in="SourceGraphic" in2="blur" operator="over"/>
    </filter>
    <radialGradient id="svg82b45078-universal-edge-vignette" cx="50%" cy="50%" r="72%">
      <stop offset="0%" stop-color="var(--background)" stop-opacity="0"/>
      <stop offset="72%" stop-color="var(--background)" stop-opacity="0.12"/>
      <stop offset="100%" stop-color="var(--primary-text)" stop-opacity="0.08"/>
    </radialGradient>
    <linearGradient id="svg82b45078-universal-surface-sheen" x1="0%" y1="0%" x2="100%" y2="100%">
      <stop offset="0%" stop-color="var(--art-sheen)" stop-opacity="var(--art-sheen-opacity)"/>
      <stop offset="46%" stop-color="var(--art-sheen)" stop-opacity="0.035"/>
      <stop offset="100%" stop-color="var(--art-panel-tint)" stop-opacity="0.14"/>
    </linearGradient>
    <radialGradient id="svg82b45078-universal-icon-aura" cx="50%" cy="42%" r="64%">
      <stop offset="0%" stop-color="var(--art-glow)" stop-opacity="var(--art-glow-opacity)"/>
      <stop offset="100%" stop-color="var(--background)" stop-opacity="0"/>
    </radialGradient>
    <radialGradient id="svg82b45078-tree-roots-art-glow" cx="50%" cy="52%" r="68%">
      <stop offset="0%" stop-color="var(--inverse-text)" stop-opacity="0.14"/>
      <stop offset="100%" stop-color="var(--background)" stop-opacity="0"/>
    </radialGradient>
    <linearGradient id="svg82b45078-tree-roots-art-sheen" x1="16%" y1="0%" x2="86%" y2="100%">
      <stop offset="0%" stop-color="var(--inverse-text)" stop-opacity="0.22"/>
      <stop offset="52%" stop-color="var(--inverse-text)" stop-opacity="0.035"/>
      <stop offset="100%" stop-color="var(--background)" stop-opacity="0.14"/>
    </linearGradient>
    <filter id="svg82b45078-text-glow" x="-20%" y="-20%" width="140%" height="140%">
      <feDropShadow dx="0" dy="0" stdDeviation="2" flood-color="#000000" flood-opacity="0.4"/>
    </filter>
    <filter id="svg82b45078-shadow" x="-30%" y="-30%" width="160%" height="160%">
      <feDropShadow dx="0" dy="2" stdDeviation="3" flood-color="#000000" flood-opacity="0.08"/>
      <feDropShadow dx="0" dy="6" stdDeviation="10" flood-color="#000000" flood-opacity="0.12"/>
    </filter>
    <marker id="svg82b45078-arrowhead" markerWidth="10" markerHeight="7" refX="9" refY="3.5" orient="auto" markerUnits="strokeWidth">
      <polygon points="0 0, 10 3.5, 0 7" fill="var(--muted-text)" opacity="0.6"/>
    </marker>
  </defs>
  <rect width="100%" height="100%" fill="var(--background)" id="CANVAS_BG"/>
  <ellipse id="TREE-ROOTS_ART_GLOW" cx="960" cy="600" rx="720" ry="390" fill="url(#svg82b45078-tree-roots-art-glow)" opacity="0.90"/>
  <rect id="UNIVERSAL_EDGE_VIGNETTE" width="100%" height="100%" fill="url(#svg82b45078-universal-edge-vignette)" opacity="0.62"/>
  <!-- Subtle dirt/background texture behind roots -->
  <rect x="0" y="280" width="1920" height="800" fill="var(--primary-text)" opacity="0.04"/>
  <g transform="translate(0, 0)">
    <!-- Ground Line -->
    <path d="M 0 280 L 1920 280" fill="none" stroke="var(--primary-text)" stroke-width="4" stroke-dasharray="10 20" opacity="0.3"/>
    <!-- Tree Canopy -->
    <g id="TREE_CANOPY" opacity="0.58">
      <circle cx="900.0" cy="210" r="70" fill="var(--panel)" stroke="var(--primary-text)" stroke-width="2"/>
      <circle cx="1020.0" cy="210" r="70" fill="var(--panel)" stroke="var(--primary-text)" stroke-width="2"/>
      <circle cx="960.0" cy="190" r="80" fill="var(--panel)" stroke="var(--primary-text)" stroke-width="2"/>
      <circle cx="960.0" cy="160" r="40" fill="var(--panel)" stroke="var(--primary-text)" stroke-width="2"/>
    </g>
    <!-- Tree Trunk -->
    <path d="M 910.0 280 C 910.0 235, 895.0 190, 900.0 140 L 1020.0 140 C 1025.0 190, 1010.0 235, 1010.0 280 Z" fill="var(--panel)" stroke="var(--primary-text)" stroke-width="2" filter="url(#svg82b45078-neon-glow)"/>
    <!-- Trunk abstract rings -->
    <ellipse cx="960.0" cy="242" rx="34.0" ry="44" fill="none" stroke="var(--background)" stroke-width="6" opacity="0.3"/>
    <rect id="TITLE_FRAME" x="660.0" y="20" width="600" height="80" fill="none"/>
    <text id="TITLE" x="960.0" y="59" font-size="34" font-weight="900" fill="#f1f5f9" text-anchor="middle" alignment-baseline="middle" style="font-size: 69px; font-family: 'Segoe UI Variable Display', 'Aptos Display', 'Inter', 'Segoe UI', Helvetica, Arial, sans-serif; font-weight: 800; font-kerning: normal; font-feature-settings: &quot;kern&quot; 1, &quot;liga&quot; 1; letter-spacing:-1.2px;" data-final-font-size="69">
      <tspan x="960.0" dy="70.47px">Factors Creating Overhead Illusions</tspan>
    </text>
  </g>
  <g transform="translate(0, 0)">
    <!-- Root Core Line -->
    <path d="M 900.0 280 C 812.0 400.0, 548.0 420.0, 460.0 480" fill="none" stroke="var(--accent-1)" stroke-width="10" stroke-linecap="round" filter="url(#svg82b45078-neon-glow)" opacity="0.9"/>
    <path d="M 900.0 280 C 812.0 400.0, 548.0 420.0, 460.0 480" fill="none" stroke="var(--background)" stroke-width="4" stroke-linecap="round"/>
    <!-- Secondary stylistic root tendril -->
    <path d="M 900.0 280 C 804.0 376.0, 516.0 392.0, 420.0 440" fill="none" stroke="var(--accent-1)" stroke-width="3" filter="url(#svg82b45078-neon-glow)" opacity="0.45"/>
    <!-- Deep Root Terminal -->
    <circle cx="460.0" cy="480" r="53" fill="none" stroke="var(--accent-1)" stroke-width="2" stroke-dasharray="8 4" opacity="0.6" display="none" data-suppressed-decoration="redundant-badge-ring"/>
    <circle cx="460.0" cy="480" r="45" fill="var(--panel)" stroke="var(--accent-1)" stroke-width="4" filter="url(#svg82b45078-neon-glow)"/>
    <circle id="ITEM_1_PAD" cx="460.00" cy="480.00" r="40.00" fill="var(--icon-pad-bg)" stroke="var(--accent-1)" stroke-width="2" opacity="1" stroke-opacity="0.72" data-badge-layer="pad"/>
    <circle id="ITEM_1_PAD_INNER" cx="460.00" cy="480.00" r="31.20" fill="var(--accent-1)" fill-opacity="0.12" stroke="none" data-badge-layer="tint"/>
    <g id="ITEM_1_ICON" transform="translate(435.0, 455)" data-icon-size="50" stroke-linecap="round" stroke-linejoin="round" data-badge-treatment="clean">
      <g transform="translate(-11.203773584905662,-13.26415094339623) scale(3.139622641509434)" vector-effect="non-scaling-stroke" fill="#f1f5f9" fill-opacity="1.0" stroke="none">
        <path fill="#f1f5f9" d="M19 2.8v6.4c0 .3-.3.6-.6.5c0 0-3.9-2.6-8.4-2.6v2.4h.2c.5 0 1 .2 1.2.6l1.3 1.8c.2.2.3.5.3.7v8c0 .7-.7 1.4-1.5 1.4h-5c-.8 0-1.5-.6-1.5-1.4v-8c0-.3.1-.5.3-.7l1.3-1.8q.45-.6 1.2-.6H8V8c-.4.5-1 .8-1.6.8C5.1 8.8 4 7.5 4 6s1.1-2.8 2.4-2.8c.6.1 1.2.4 1.6.8V2.6h2V5c4.5 0 8.4-2.6 8.4-2.6c.3-.1.6.1.6.4" vector-effect="non-scaling-stroke" stroke="none"/>
      </g>
    </g>
    <rect id="ITEM_1_TEXT_BG" x="37.0" y="414.0" width="376.0" height="222.0" rx="22" fill="var(--panel)" fill-opacity="0.97" stroke="var(--primary-text)" stroke-opacity="0.22" stroke-width="2.2"/>
    <text id="ITEM_1_HEAD" data-bg-id="ITEM_1_TEXT_BG" x="395.0" y="430.0" font-weight="bold" font-size="25" fill="var(--accent-1)" text-anchor="end" fill-opacity="1.0" stroke="none" style="font-size: 31px; font-family: 'Segoe UI Variable Display', 'Aptos Display', 'Inter', 'Segoe UI', Helvetica, Arial, sans-serif; font-weight: 700; font-kerning: normal; font-feature-settings: &quot;kern&quot; 1, &quot;liga&quot; 1; letter-spacing:-0.4px;" data-final-font-size="31">
      <tspan x="395.0" dy="28.52px">Air-Ground Coupling</tspan>
    </text>
    <rect id="ITEM_1_HEAD_FRAME" x="95.0" y="430" width="300" height="40" fill="none"/>
    <text id="ITEM_1_BODY" data-bg-id="ITEM_1_TEXT_BG" x="395.0" y="500.0" font-size="17" fill="var(--primary-text)" text-anchor="end" style="font-size: 23px; font-family: 'Segoe UI Variable Text', 'Aptos', 'Inter', 'Segoe UI', Helvetica, Arial, sans-serif; font-weight: 400; font-kerning: normal; font-feature-settings: &quot;kern&quot; 1, &quot;liga&quot; 1;" data-final-font-size="23">
      <tspan x="395.0" dy="31.82px">Vibrating earth acts as a</tspan>
      <tspan x="395.0" dy="26.45px">massive acoustic radiator</tspan>
    </text>
    <rect id="ITEM_1_BODY_FRAME" x="55" y="500" width="340" height="120" fill="none"/>
  </g>
  <g transform="translate(0, 0)">
    <!-- Root Core Line -->
    <path d="M 930.0 280 C 886.0 550.0, 754.0 595.0, 710.0 730" fill="none" stroke="var(--accent-2)" stroke-width="10" stroke-linecap="round" filter="url(#svg82b45078-neon-glow)" opacity="0.9"/>
    <path d="M 930.0 280 C 886.0 550.0, 754.0 595.0, 710.0 730" fill="none" stroke="var(--background)" stroke-width="4" stroke-linecap="round"/>
    <!-- Secondary stylistic root tendril -->
    <path d="M 930.0 280 C 878.0 526.0, 722.0 567.0, 670.0 690" fill="none" stroke="var(--accent-2)" stroke-width="3" filter="url(#svg82b45078-neon-glow)" opacity="0.45"/>
    <!-- Deep Root Terminal -->
    <circle cx="710.0" cy="730" r="53" fill="none" stroke="var(--accent-2)" stroke-width="2" stroke-dasharray="8 4" opacity="0.6" display="none" data-suppressed-decoration="redundant-badge-ring"/>
    <circle cx="710.0" cy="730" r="45" fill="var(--panel)" stroke="var(--accent-2)" stroke-width="4" filter="url(#svg82b45078-neon-glow)"/>
    <circle id="ITEM_2_PAD" cx="710.00" cy="730.00" r="40.00" fill="var(--icon-pad-bg)" stroke="var(--accent-2)" stroke-width="2" opacity="1" stroke-opacity="0.72" data-badge-layer="pad"/>
    <circle id="ITEM_2_PAD_INNER" cx="710.00" cy="730.00" r="31.20" fill="var(--accent-2)" fill-opacity="0.12" stroke="none" data-badge-layer="tint"/>
    <g id="ITEM_2_ICON" transform="translate(685.0, 705)" data-icon-size="50" stroke-linecap="round" stroke-linejoin="round" data-badge-treatment="clean">
      <g transform="translate(-11.977777777777781,-11.977777777777781) scale(3.081481481481482)" vector-effect="non-scaling-stroke" stroke-width="2.31" stroke-linecap="round" stroke-linejoin="round" stroke-opacity="1.0">
        <rect width="18" height="18" x="3" y="3" rx="2" vector-effect="non-scaling-stroke" fill="none" stroke="#f1f5f9"/>
        <path d="M12 9v6" vector-effect="non-scaling-stroke" fill="none" stroke="#f1f5f9"/>
        <path d="M16 15v6" vector-effect="non-scaling-stroke" fill="none" stroke="#f1f5f9"/>
        <path d="M16 3v6" vector-effect="non-scaling-stroke" fill="none" stroke="#f1f5f9"/>
        <path d="M3 15h18" vector-effect="non-scaling-stroke" fill="none" stroke="#f1f5f9"/>
        <path d="M3 9h18" vector-effect="non-scaling-stroke" fill="none" stroke="#f1f5f9"/>
        <path d="M8 15v6" vector-effect="non-scaling-stroke" fill="none" stroke="#f1f5f9"/>
        <path d="M8 3v6" vector-effect="non-scaling-stroke" fill="none" stroke="#f1f5f9"/>
      </g>
    </g>
    <rect id="ITEM_2_TEXT_BG" x="247.0" y="664.0" width="416.0" height="222.0" rx="22" fill="var(--panel)" fill-opacity="0.97" stroke="var(--primary-text)" stroke-opacity="0.22" stroke-width="2.2"/>
    <text id="ITEM_2_HEAD" data-bg-id="ITEM_2_TEXT_BG" x="645.0" y="680.0" font-weight="bold" font-size="25" fill="var(--accent-2)" text-anchor="end" fill-opacity="1.0" stroke="none" style="font-size: 31px; font-family: 'Segoe UI Variable Display', 'Aptos Display', 'Inter', 'Segoe UI', Helvetica, Arial, sans-serif; font-weight: 700; font-kerning: normal; font-feature-settings: &quot;kern&quot; 1, &quot;liga&quot; 1; letter-spacing:-0.4px;" data-final-font-size="31">
      <tspan x="645.0" dy="28.52px">Acoustic Reflections</tspan>
    </text>
    <rect id="ITEM_2_HEAD_FRAME" x="325.0" y="680" width="320" height="40" fill="none"/>
    <text id="ITEM_2_BODY" data-bg-id="ITEM_2_TEXT_BG" x="645.0" y="750.0" font-size="17" fill="var(--primary-text)" text-anchor="end" style="font-size: 23px; font-family: 'Segoe UI Variable Text', 'Aptos', 'Inter', 'Segoe UI', Helvetica, Arial, sans-serif; font-weight: 400; font-kerning: normal; font-feature-settings: &quot;kern&quot; 1, &quot;liga&quot; 1;" data-final-font-size="23">
      <tspan x="645.0" dy="31.82px">Terrain and structures scatter</tspan>
      <tspan x="645.0" dy="26.45px">sound waves in all directions</tspan>
    </text>
    <rect id="ITEM_2_BODY_FRAME" x="265" y="750" width="380" height="120" fill="none"/>
  </g>
  <g transform="translate(0, 0)">
    <!-- Root Core Line -->
    <path d="M 960.0 280 C 960.0 670.0, 960.0 735.0, 960.0 930" fill="none" stroke="var(--accent-3)" stroke-width="10" stroke-linecap="round" filter="url(#svg82b45078-neon-glow)" opacity="0.9"/>
    <path d="M 960.0 280 C 960.0 670.0, 960.0 735.0, 960.0 930" fill="none" stroke="var(--background)" stroke-width="4" stroke-linecap="round"/>
    <!-- Secondary stylistic root tendril -->
    <path d="M 960.0 280 C 952.0 646.0, 928.0 707.0, 920.0 890" fill="none" stroke="var(--accent-3)" stroke-width="3" filter="url(#svg82b45078-neon-glow)" opacity="0.45"/>
    <!-- Deep Root Terminal -->
    <circle cx="960.0" cy="930" r="53" fill="none" stroke="var(--accent-3)" stroke-width="2" stroke-dasharray="8 4" opacity="0.6" display="none" data-suppressed-decoration="redundant-badge-ring"/>
    <circle cx="960.0" cy="930" r="45" fill="var(--panel)" stroke="var(--accent-3)" stroke-width="4" filter="url(#svg82b45078-neon-glow)"/>
    <circle id="ITEM_3_PAD" cx="960.00" cy="930.00" r="40.00" fill="var(--icon-pad-bg)" stroke="var(--accent-3)" stroke-width="2" opacity="1" stroke-opacity="0.72" data-badge-layer="pad"/>
    <circle id="ITEM_3_PAD_INNER" cx="960.00" cy="930.00" r="31.20" fill="var(--accent-3)" fill-opacity="0.12" stroke="none" data-badge-layer="tint"/>
    <g id="ITEM_3_ICON" transform="translate(935.0, 905)" data-icon-size="50" stroke-linecap="round" stroke-linejoin="round" data-badge-treatment="clean">
      <g transform="translate(-9.427586206896557,-9.427586206896555) scale(0.13448275862068967)" vector-effect="non-scaling-stroke" fill="#f1f5f9" fill-opacity="1.0" stroke="none">
        <path fill="#f1f5f9" d="M256 27.12c-44.3 0-88.4 3.36-119 9.99v63.79h238V37.11c-30.6-6.63-74.7-9.99-119-9.99m-91.6 91.78l15.8 132q8.7-.45 18-.9l-15.7-131.1zm82.5 0l-1.6 130h18l1.6-130zm82.6 0L313.8 250q9.3.45 18 .9l15.8-132zm-73.5 148c-31.8 0-63.6 1-89.3 3c-12.8 1-24.1 2.2-33 3.6c-5.4.9-9.5 1.9-12.7 2.8v32.6h270v-32.6c-3.2-.9-7.3-1.9-12.7-2.8c-8.9-1.4-20.2-2.6-33-3.6c-25.7-2-57.5-3-89.3-3m-103 60v158h30v-158zm176 0v158h30v-158zm-128 64v16h110v-16z" vector-effect="non-scaling-stroke" stroke="none"/>
      </g>
    </g>
    <rect id="ITEM_3_TEXT_BG" x="532.0" y="824.0" width="356.0" height="210.0" rx="22" fill="var(--panel)" fill-opacity="0.97" stroke="var(--primary-text)" stroke-opacity="0.22" stroke-width="2.2"/>
    <text id="ITEM_3_HEAD" data-bg-id="ITEM_3_TEXT_BG" x="870.0" y="840.0" font-weight="bold" font-size="25" fill="var(--accent-3)" text-anchor="end" fill-opacity="1.0" stroke="none" style="font-size: 28px; font-family: 'Segoe UI Variable Display', 'Aptos Display', 'Inter', 'Segoe UI', Helvetica, Arial, sans-serif; font-weight: 700; font-kerning: normal; font-feature-settings: &quot;kern&quot; 1, &quot;liga&quot; 1; letter-spacing:-0.4px;" data-final-font-size="28">
      <tspan x="870.0" dy="26.30px">Simultaneous Vibration</tspan>
    </text>
    <rect id="ITEM_3_HEAD_FRAME" x="570.0" y="840" width="300" height="40" fill="none"/>
    <text id="ITEM_3_BODY" data-bg-id="ITEM_3_TEXT_BG" x="870.0" y="910.0" font-size="17" fill="var(--primary-text)" text-anchor="end" style="font-size: 23px; font-family: 'Segoe UI Variable Text', 'Aptos', 'Inter', 'Segoe UI', Helvetica, Arial, sans-serif; font-weight: 400; font-kerning: normal; font-feature-settings: &quot;kern&quot; 1, &quot;liga&quot; 1;" data-final-font-size="23">
      <tspan x="870.0" dy="27.02px">Shaking furniture detaches</tspan>
      <tspan x="870.0" dy="26.45px">sound from the ground source</tspan>
    </text>
    <rect id="ITEM_3_BODY_FRAME" x="550" y="910" width="320" height="96" fill="none"/>
  </g>
  <g transform="translate(0, 0)">
    <!-- Root Core Line -->
    <path d="M 990.0 280 C 1034.0 550.0, 1166.0 595.0, 1210.0 730" fill="none" stroke="var(--accent-4)" stroke-width="10" stroke-linecap="round" filter="url(#svg82b45078-neon-glow)" opacity="0.9"/>
    <path d="M 990.0 280 C 1034.0 550.0, 1166.0 595.0, 1210.0 730" fill="none" stroke="var(--background)" stroke-width="4" stroke-linecap="round"/>
    <!-- Secondary stylistic root tendril -->
    <path d="M 990.0 280 C 1042.0 526.0, 1198.0 567.0, 1250.0 690" fill="none" stroke="var(--accent-4)" stroke-width="3" filter="url(#svg82b45078-neon-glow)" opacity="0.45"/>
    <!-- Deep Root Terminal -->
    <circle cx="1210.0" cy="730" r="53" fill="none" stroke="var(--accent-4)" stroke-width="2" stroke-dasharray="8 4" opacity="0.6" display="none" data-suppressed-decoration="redundant-badge-ring"/>
    <circle cx="1210.0" cy="730" r="45" fill="var(--panel)" stroke="var(--accent-4)" stroke-width="4" filter="url(#svg82b45078-neon-glow)"/>
    <circle id="ITEM_4_PAD" cx="1210.00" cy="730.00" r="40.00" fill="var(--icon-pad-bg)" stroke="var(--accent-1)" stroke-width="2" opacity="1" stroke-opacity="0.72" data-badge-layer="pad"/>
    <circle id="ITEM_4_PAD_INNER" cx="1210.00" cy="730.00" r="31.20" fill="var(--accent-1)" fill-opacity="0.12" stroke="none" data-badge-layer="tint"/>
    <g id="ITEM_4_ICON" transform="translate(1185.0, 705)" data-icon-size="50" stroke-linecap="round" stroke-linejoin="round" data-badge-treatment="clean">
      <g transform="translate(-11.977777777777783,-11.977777777777781) scale(3.081481481481482)" vector-effect="non-scaling-stroke" fill="#f1f5f9" fill-opacity="1.0" stroke="none">
        <path fill="#f1f5f9" d="M21 9h-6v13h-2v-6h-2v6H9V9H3V7h18m-9-5a2 2 0 0 1 2 2a2 2 0 0 1-2 2a2 2 0 0 1-2-2c0-1.11.89-2 2-2" vector-effect="non-scaling-stroke" stroke="none"/>
      </g>
    </g>
    <rect id="ITEM_4_TEXT_BG" x="1257.0" y="664.0" width="416.0" height="222.0" rx="22" fill="var(--panel)" fill-opacity="0.97" stroke="var(--primary-text)" stroke-opacity="0.22" stroke-width="2.2"/>
    <text id="ITEM_4_HEAD" data-bg-id="ITEM_4_TEXT_BG" x="1275.0" y="680.0" font-weight="bold" font-size="25" fill="var(--accent-1)" text-anchor="start" fill-opacity="1.0" stroke="none" style="font-size: 31px; font-family: 'Segoe UI Variable Display', 'Aptos Display', 'Inter', 'Segoe UI', Helvetica, Arial, sans-serif; font-weight: 700; font-kerning: normal; font-feature-settings: &quot;kern&quot; 1, &quot;liga&quot; 1; letter-spacing:-0.4px;" data-final-font-size="31">
      <tspan x="1275.0" dy="28.52px">Human Expectation</tspan>
    </text>
    <rect id="ITEM_4_HEAD_FRAME" x="1275.0" y="680" width="320" height="40" fill="none"/>
    <text id="ITEM_4_BODY" data-bg-id="ITEM_4_TEXT_BG" x="1275.0" y="750.0" font-size="17" fill="var(--primary-text)" text-anchor="start" style="font-size: 23px; font-family: 'Segoe UI Variable Text', 'Aptos', 'Inter', 'Segoe UI', Helvetica, Arial, sans-serif; font-weight: 400; font-kerning: normal; font-feature-settings: &quot;kern&quot; 1, &quot;liga&quot; 1;" data-final-font-size="23">
      <tspan x="1275.0" dy="31.82px">Loud booms without shaking are</tspan>
      <tspan x="1275.0" dy="26.45px">instinctively linked to sky</tspan>
    </text>
    <rect id="ITEM_4_BODY_FRAME" x="1275" y="750" width="380" height="120" fill="none"/>
  </g>
  <g transform="translate(0, 0)">
    <!-- Root Core Line -->
    <path d="M 1020.0 280 C 1108.0 400.0, 1372.0 420.0, 1460.0 480" fill="none" stroke="var(--accent-5)" stroke-width="10" stroke-linecap="round" filter="url(#svg82b45078-neon-glow)" opacity="0.9"/>
    <path d="M 1020.0 280 C 1108.0 400.0, 1372.0 420.0, 1460.0 480" fill="none" stroke="var(--background)" stroke-width="4" stroke-linecap="round"/>
    <!-- Secondary stylistic root tendril -->
    <path d="M 1020.0 280 C 1116.0 376.0, 1404.0 392.0, 1500.0 440" fill="none" stroke="var(--accent-5)" stroke-width="3" filter="url(#svg82b45078-neon-glow)" opacity="0.45"/>
    <!-- Deep Root Terminal -->
    <circle cx="1460.0" cy="480" r="53" fill="none" stroke="var(--accent-5)" stroke-width="2" stroke-dasharray="8 4" opacity="0.6" display="none" data-suppressed-decoration="redundant-badge-ring"/>
    <circle cx="1460.0" cy="480" r="45" fill="var(--panel)" stroke="var(--accent-5)" stroke-width="4" filter="url(#svg82b45078-neon-glow)"/>
    <circle id="ITEM_5_PAD" cx="1460.00" cy="480.00" r="40.00" fill="var(--icon-pad-bg)" stroke="var(--accent-2)" stroke-width="2" opacity="1" stroke-opacity="0.72" data-badge-layer="pad"/>
    <circle id="ITEM_5_PAD_INNER" cx="1460.00" cy="480.00" r="31.20" fill="var(--accent-2)" fill-opacity="0.12" stroke="none" data-badge-layer="tint"/>
    <g id="ITEM_5_ICON" transform="translate(1435.0, 455)" data-icon-size="50" stroke-linecap="round" stroke-linejoin="round" data-badge-treatment="clean">
      <g transform="translate(-12.675471698113213,-12.675471698113215) scale(0.14716981132075474)" vector-effect="non-scaling-stroke" fill="#f1f5f9" fill-opacity="1.0" stroke="none">
        <path fill="#f1f5f9" d="M273.063 47.188c-1.974.032-3.98.123-6 .25c-60.62 3.805-100.33 35.933-123.563 83.78c-22.862 47.083-28.442 109.71-17.125 172.47l1.75 1.75l-1.406 5.718c-3.43 14.203-1.17 31.297 4.28 45.97c5.45 14.67 14.52 26.75 20.594 30.78l5.03 3.344l-.374 6c-1.355 21.968 6.887 38.96 18.438 50.688c11.55 11.726 26.687 17.447 36.593 16.843c10.25-.623 15.605-3.796 21.25-10c5.648-6.202 10.894-16.054 17.064-28.28c12.34-24.452 28.935-57.856 68.094-87.094c63.353-47.305 82.793-122.987 70-185.656c-6.397-31.334-20.867-59.136-41.407-78.313c-17.97-16.78-40.38-27.204-67.374-28.187c-1.928-.07-3.87-.095-5.844-.063m-6.875 54.156a91 91 0 0 1 3.843 0c26.317.48 51.695 12.228 69.314 35.437A9 9 0 1 1 325 147.657c-25.65-33.79-69.065-37.748-104.344-12.437c-18.275 13.11-34.26 34.452-43.312 64.343c12.93-13.697 27.912-27.055 44.5-35.532c9.905-5.06 20.616-8.356 31.656-8.405c3.68-.016 7.393.332 11.125 1.094c14.928 3.046 29.34 12.706 42.188 29.686a9.003 9.003 0 1 1-14.375 10.844c-10.987-14.52-21.443-20.872-31.407-22.906c-9.962-2.034-20.222.21-31 5.72c-21.54 11.006-43.38 35.2-59.5 54.686c-1.83 18.726-1.345 39.794 2.126 63.25c12.828.502 23.317 3.768 30.97 9.72c9.264 7.204 13.86 17.8 14.53 28.25c1.343 20.897-10.62 42.6-30.625 51.06a9.01 9.01 0 0 1-7.03-16.592c11.446-4.842 20.493-20.77 19.688-33.313c-.403-6.27-2.644-11.314-7.625-15.188c-4.982-3.873-13.416-6.82-27.22-6.062a9 9 0 0 1-9.374-7.47c-16.06-93.725 12.22-157.702 54.186-187.81c17.214-12.35 36.787-18.802 56.03-19.25z" vector-effect="non-scaling-stroke" stroke="none"/>
      </g>
    </g>
    <rect id="ITEM_5_TEXT_BG" x="1507.0" y="414.0" width="376.0" height="222.0" rx="22" fill="var(--panel)" fill-opacity="0.97" stroke="var(--primary-text)" stroke-opacity="0.22" stroke-width="2.2"/>
    <text id="ITEM_5_HEAD" data-bg-id="ITEM_5_TEXT_BG" x="1525.0" y="430.0" font-weight="bold" font-size="25" fill="var(--accent-2)" text-anchor="start" fill-opacity="1.0" stroke="none" style="font-size: 31px; font-family: 'Segoe UI Variable Display', 'Aptos Display', 'Inter', 'Segoe UI', Helvetica, Arial, sans-serif; font-weight: 700; font-kerning: normal; font-feature-settings: &quot;kern&quot; 1, &quot;liga&quot; 1; letter-spacing:-0.4px;" data-final-font-size="31">
      <tspan x="1525.0" dy="28.52px">Low-Frequency Limits</tspan>
    </text>
    <rect id="ITEM_5_HEAD_FRAME" x="1525.0" y="430" width="320" height="40" fill="none"/>
    <text id="ITEM_5_BODY" data-bg-id="ITEM_5_TEXT_BG" x="1525.0" y="500.0" font-size="17" fill="var(--primary-text)" text-anchor="start" style="font-size: 23px; font-family: 'Segoe UI Variable Text', 'Aptos', 'Inter', 'Segoe UI', Helvetica, Arial, sans-serif; font-weight: 400; font-kerning: normal; font-feature-settings: &quot;kern&quot; 1, &quot;liga&quot; 1;" data-final-font-size="23">
      <tspan x="1525.0" dy="31.82px">Human hearing struggles to</tspan>
      <tspan x="1525.0" dy="26.45px">locate deep broadband rumbles</tspan>
    </text>
    <rect id="ITEM_5_BODY_FRAME" x="1525" y="500" width="340" height="120" fill="none"/>
  </g>
  <text id="SOURCE_NOTE" x="134.0" y="1058.0" fill="var(--muted-text)" opacity="1" style="font-family: var(--font-family); font-size: 20px;">Source: Earthquake Booms, Seneca Guns, and Other Sounds | U.S. Geological Survey</text>
</svg>
