<?xml version='1.0' encoding='utf-8'?>
<svg xmlns="http://www.w3.org/2000/svg" width="1920" height="1080" viewBox="0 0 1920 1080" data-theme="light" data-semantic-intent="compare" data-relation-type="comparison" data-site-visual-identity="signal-cobalt">
  <style>
        @font-face {
            font-family: 'Inter';
            src: url('assets/fonts/Inter-Regular.ttf') format('truetype');
            font-weight: 400;
            font-style: normal;
            font-display: swap;
        }
        @font-face {
            font-family: 'Inter';
            src: url('assets/fonts/Inter-Bold.ttf') format('truetype');
            font-weight: 600;
            font-style: normal;
            font-display: swap;
        }
        @font-face {
            font-family: 'Inter';
            src: url('assets/fonts/Inter-Bold.ttf') format('truetype');
            font-weight: 800;
            font-style: normal;
            font-display: swap;
        }
        
:root {
    --background: #f8fafc;
    --panel: #ffffff;
    --primary-text: #0f172a;
    --muted-text: #64748b;
    --inverse-text: #ffffff;
    --border: #e2e8f0;
    --shadow-color: #000000;
    --icon-pad-bg: #1e293b;
    --art-glow: #0891b2;
    --art-glow-opacity: 0.10;
    --art-sheen: #ffffff;
    --art-sheen-opacity: 0.34;
    --art-shadow: #0f172a;
    --art-shadow-opacity: 0.14;
    --art-muted-line: #94a3b8;
    --art-panel-tint: #f1f5f9;
    --semantic-risk: #b91c1c;
    --semantic-warning: #c2410c;
    --semantic-uncertain: #a16207;
    --semantic-evidence: #1d4ed8;
    --semantic-claim: #6d28d9;
    --semantic-positive: #15803d;
    --semantic-outcome: #0e7490;
    --font-family: 'Inter', 'Segoe UI', 'Kalam', Roboto, Helvetica, Arial, sans-serif;
    --radius-xl: 16px;
    --font-family-headline: 'Segoe UI Variable Display', 'Aptos Display', 'Inter', 'Segoe UI', Helvetica, Arial, sans-serif;
    --font-family-body: 'Segoe UI Variable Text', 'Aptos', 'Inter', 'Segoe UI', Helvetica, Arial, sans-serif;
    --font-heading: var(--font-family-headline);
    --font-body: var(--font-family-body);
    --font-size-h1: 64px;
    --font-size-h2: 42px;
    --font-size-h3: 29px;
    --font-size-body: 21px;
    --font-size-caption: 17px;
    --secondary-text: var(--muted-text);
    --panel-border: var(--border);
    --font-weight-normal: 400;
    --font-weight-medium: 500;
    --font-weight-semibold: 600;
    --font-weight-bold: 700;
    --spacing-gutter-pct: 0.07;
    --spacing-top-pct: 0.15;
    --spacing-bottom-pct: 0.07;
    --spacing-title-y-pct: 0.055;
    --accent-1: #1d4ed8;
    --accent-2: #2563eb;
    --accent-3: #4f46e5;
    --accent-4: #6d28d9;
    --accent-5: #0369a1;
    --accent-6: #c2410c;
}
:root[data-theme="dark"] {
    --background: #0f172a;
    --panel: #1e293b;
    --primary-text: #f1f5f9;
    --muted-text: #94a3b8;
    --inverse-text: #0f172a;
    --border: #334155;
    --shadow-color: #000000;
    --icon-pad-bg: #1e293b;
    --art-glow: #7dd3fc;
    --art-glow-opacity: 0.18;
    --art-sheen: #ffffff;
    --art-sheen-opacity: 0.18;
    --art-shadow: #000000;
    --art-shadow-opacity: 0.28;
    --art-muted-line: #64748b;
    --art-panel-tint: #1e293b;
    --semantic-risk: #f87171;
    --semantic-warning: #fb923c;
    --semantic-uncertain: #fbbf24;
    --semantic-evidence: #60a5fa;
    --semantic-claim: #c084fc;
    --semantic-positive: #4ade80;
    --semantic-outcome: #22d3ee;
    --accent-1: #93c5fd;
    --accent-2: #60a5fa;
    --accent-3: #818cf8;
    --accent-4: #a78bfa;
    --accent-5: #38bdf8;
    --accent-6: #fb923c;
}
:root[data-theme="light"] {
    --background: #f8fafc;
    --panel: #ffffff;
    --primary-text: #0f172a;
    --muted-text: #64748b;
    --inverse-text: #ffffff;
    --border: #e2e8f0;
    --shadow-color: #000000;
    --icon-pad-bg: #1e293b;
    --art-glow: #0891b2;
    --art-glow-opacity: 0.10;
    --art-sheen: #ffffff;
    --art-sheen-opacity: 0.34;
    --art-shadow: #0f172a;
    --art-shadow-opacity: 0.14;
    --art-muted-line: #94a3b8;
    --art-panel-tint: #f1f5f9;
    --semantic-risk: #b91c1c;
    --semantic-warning: #c2410c;
    --semantic-uncertain: #a16207;
    --semantic-evidence: #1d4ed8;
    --semantic-claim: #6d28d9;
    --semantic-positive: #15803d;
    --semantic-outcome: #0e7490;
    --accent-1: #1d4ed8;
    --accent-2: #2563eb;
    --accent-3: #4f46e5;
    --accent-4: #6d28d9;
    --accent-5: #0369a1;
    --accent-6: #c2410c;
}</style>
  <rect x="0" y="0" width="1.92E+3" height="1.08E+3" fill="#252a34" stroke="none" id="programmatic_background"/>
  <line id="HEADER_DECOR" x1="960.0" x2="1080.0" y1="135.0" y2="135.0" stroke="var(--accent-1)" stroke-width="6" stroke-linecap="round"/>
  <defs>
    <pattern id="svg1aed0a31-napkin-hatch" patternUnits="userSpaceOnUse" width="12" height="12">
      <path d="M -3 12 L 12 -3 M 0 15 L 15 0" fill="none" stroke="var(--primary-text)" stroke-width="1" stroke-opacity="0.05"/>
    </pattern>
    <filter id="svg1aed0a31-shadow" x="-30%" y="-30%" width="160%" height="160%">
      <feDropShadow dx="0" dy="2" stdDeviation="3" flood-color="#000000" flood-opacity="0.08"/>
      <feDropShadow dx="0" dy="6" stdDeviation="10" flood-color="#000000" flood-opacity="0.12"/>
    </filter>
    <marker id="svg1aed0a31-arrowhead" markerWidth="10" markerHeight="10" refX="9" refY="5" orient="auto">
      <path d="M 0 0 L 10 5 L 0 10 Z" fill="var(--accent-1)"/>
    </marker>
    <filter id="svg1aed0a31-text-glow" x="-20%" y="-20%" width="140%" height="140%">
      <feDropShadow dx="0" dy="0" stdDeviation="2" flood-color="#000000" flood-opacity="0.4"/>
    </filter>
    <radialGradient id="svg1aed0a31-universal-edge-vignette" cx="50%" cy="50%" r="72%">
      <stop offset="0%" stop-color="var(--background)" stop-opacity="0"/>
      <stop offset="72%" stop-color="var(--background)" stop-opacity="0.12"/>
      <stop offset="100%" stop-color="var(--primary-text)" stop-opacity="0.08"/>
    </radialGradient>
    <linearGradient id="svg1aed0a31-universal-surface-sheen" x1="0%" y1="0%" x2="100%" y2="100%">
      <stop offset="0%" stop-color="var(--art-sheen)" stop-opacity="var(--art-sheen-opacity)"/>
      <stop offset="46%" stop-color="var(--art-sheen)" stop-opacity="0.035"/>
      <stop offset="100%" stop-color="var(--art-panel-tint)" stop-opacity="0.14"/>
    </linearGradient>
    <radialGradient id="svg1aed0a31-universal-icon-aura" cx="50%" cy="42%" r="64%">
      <stop offset="0%" stop-color="var(--art-glow)" stop-opacity="var(--art-glow-opacity)"/>
      <stop offset="100%" stop-color="var(--background)" stop-opacity="0"/>
    </radialGradient>
    <linearGradient id="svg1aed0a31-myth-card-sheen" x1="0%" y1="0%" x2="100%" y2="100%">
      <stop offset="0%" stop-color="var(--inverse-text)" stop-opacity="0.18"/>
      <stop offset="56%" stop-color="var(--inverse-text)" stop-opacity="0.03"/>
      <stop offset="100%" stop-color="var(--background)" stop-opacity="0.12"/>
    </linearGradient>
  </defs>
  <rect width="100%" height="100%" fill="var(--background)" id="CANVAS_BG"/>
  <rect width="100%" height="100%" fill="url(#svg1aed0a31-napkin-hatch)"/>
  <rect id="UNIVERSAL_EDGE_VIGNETTE" width="100%" height="100%" fill="url(#svg1aed0a31-universal-edge-vignette)" opacity="0.62"/>
  <text id="TITLE" x="960.0" y="59" text-anchor="middle" font-weight="800" font-size="56" fill="#0f172a" style="font-size: 69px; font-family: 'Segoe UI Variable Display', 'Aptos Display', 'Inter', 'Segoe UI', Helvetica, Arial, sans-serif; font-weight: 800; font-kerning: normal; font-feature-settings: &quot;kern&quot; 1, &quot;liga&quot; 1; letter-spacing:-1.2px;" data-final-font-size="69">
    <tspan x="960.0" dy="70.47px">Witness Perception vs. Instrumental Measurement</tspan>
  </text>
  <rect id="TITLE_FRAME" x="134" y="59" width="1652" height="103" fill="none"/>
  <g transform="translate(0, 190) scale(1.0)">
    <path d="M 920 -8 C 950 80 950 720 920 808" stroke="var(--primary-text)" stroke-width="2" stroke-opacity="0.10" fill="none"/>
    <path d="M 1000 -8 C 970 80 970 720 1000 808" stroke="var(--primary-text)" stroke-width="2" stroke-opacity="0.10" fill="none"/>
    <text x="480.0" y="0" text-anchor="middle" font-weight="900" font-size="52" fill="var(--accent-1)">MYTHS</text>
    <text x="1440.0" y="0" text-anchor="middle" font-weight="900" font-size="52" fill="var(--accent-2)">REALITY</text>
    <g transform="translate(480.0, 200.0)">
      <rect id="ITEM_1_ACCENT_BG" x="-400" y="-180.0" width="800" height="395.0" rx="24" fill="var(--semantic-claim)" fill-opacity="1.0"/>
      <rect id="ITEM_1_BG" x="-400" y="-180.0" width="800" height="395.0" rx="24" fill="var(--panel)" stroke="var(--accent-1)" filter="url(#svg1aed0a31-shadow)" stroke-width="3"/>
      <rect x="-388" y="-168.0" width="776" height="371.0" rx="22" fill="url(#svg1aed0a31-myth-card-sheen)" opacity="0.92"/>
      <circle id="ITEM_1_PAD" cx="-330" cy="-100" r="50" fill="var(--icon-pad-bg)" stroke="var(--semantic-claim)" stroke-width="2" stroke-opacity="0.72" opacity="1" fill-opacity="0.9" data-badge-layer="pad"/>
      <circle id="ITEM_1_PAD_INNER" cx="-330" cy="-100" r="39.00" fill="var(--semantic-claim)" fill-opacity="0.12" stroke="none" data-badge-layer="tint"/>
      <circle cx="-330" cy="-100" r="36" fill="none" stroke="var(--accent-1)" stroke-width="3" stroke-dasharray="6 4" display="none" data-suppressed-decoration="redundant-badge-ring"/>
      <g id="ITEM_1_ICON" transform="translate(-360, -130)" data-icon-size="60" stroke-linecap="round" stroke-linejoin="round" data-badge-treatment="clean">
        <g transform="translate(-17.094339622641506,-17.09433962264151) scale(0.18396226415094338)" vector-effect="non-scaling-stroke" fill="#f1f5f9" fill-opacity="1.0" stroke="none">
          <path fill="#f1f5f9" d="M273.063 47.188c-1.974.032-3.98.123-6 .25c-60.62 3.805-100.33 35.933-123.563 83.78c-22.862 47.083-28.442 109.71-17.125 172.47l1.75 1.75l-1.406 5.718c-3.43 14.203-1.17 31.297 4.28 45.97c5.45 14.67 14.52 26.75 20.594 30.78l5.03 3.344l-.374 6c-1.355 21.968 6.887 38.96 18.438 50.688c11.55 11.726 26.687 17.447 36.593 16.843c10.25-.623 15.605-3.796 21.25-10c5.648-6.202 10.894-16.054 17.064-28.28c12.34-24.452 28.935-57.856 68.094-87.094c63.353-47.305 82.793-122.987 70-185.656c-6.397-31.334-20.867-59.136-41.407-78.313c-17.97-16.78-40.38-27.204-67.374-28.187c-1.928-.07-3.87-.095-5.844-.063m-6.875 54.156a91 91 0 0 1 3.843 0c26.317.48 51.695 12.228 69.314 35.437A9 9 0 1 1 325 147.657c-25.65-33.79-69.065-37.748-104.344-12.437c-18.275 13.11-34.26 34.452-43.312 64.343c12.93-13.697 27.912-27.055 44.5-35.532c9.905-5.06 20.616-8.356 31.656-8.405c3.68-.016 7.393.332 11.125 1.094c14.928 3.046 29.34 12.706 42.188 29.686a9.003 9.003 0 1 1-14.375 10.844c-10.987-14.52-21.443-20.872-31.407-22.906c-9.962-2.034-20.222.21-31 5.72c-21.54 11.006-43.38 35.2-59.5 54.686c-1.83 18.726-1.345 39.794 2.126 63.25c12.828.502 23.317 3.768 30.97 9.72c9.264 7.204 13.86 17.8 14.53 28.25c1.343 20.897-10.62 42.6-30.625 51.06a9.01 9.01 0 0 1-7.03-16.592c11.446-4.842 20.493-20.77 19.688-33.313c-.403-6.27-2.644-11.314-7.625-15.188c-4.982-3.873-13.416-6.82-27.22-6.062a9 9 0 0 1-9.374-7.47c-16.06-93.725 12.22-157.702 54.186-187.81c17.214-12.35 36.787-18.802 56.03-19.25z" vector-effect="non-scaling-stroke" stroke="none"/>
        </g>
      </g>
      <text id="ITEM_1_HEAD" x="0.0" y="-130.0" text-anchor="middle" font-weight="bold" font-size="32" fill="var(--semantic-claim)" data-bg-id="ITEM_1_BG" fill-opacity="1.0" style="font-size: 31px; font-family: 'Segoe UI Variable Display', 'Aptos Display', 'Inter', 'Segoe UI', Helvetica, Arial, sans-serif; font-weight: 700; font-kerning: normal; font-feature-settings: &quot;kern&quot; 1, &quot;liga&quot; 1; letter-spacing:-0.4px;" data-final-font-size="31">
        <tspan x="0.0" dy="42.12px">Subjective Hearing</tspan>
      </text>
      <rect id="ITEM_1_HEAD_FRAME" x="-310" y="-130" width="620" height="60" fill="none"/>
      <text id="ITEM_1_BODY" x="0.0" y="-50.0" text-anchor="middle" font-size="24" fill="var(--primary-text)" opacity="0.88" data-bg-id="ITEM_1_BG" style="font-size: 23px; font-family: 'Segoe UI Variable Text', 'Aptos', 'Inter', 'Segoe UI', Helvetica, Arial, sans-serif; font-weight: 400; font-kerning: normal; font-feature-settings: &quot;kern&quot; 1, &quot;liga&quot; 1;" data-final-font-size="23">
        <tspan x="0.0" dy="65.55px">Human ears are affected by wind and terrain</tspan>
      </text>
      <rect id="ITEM_1_BODY_FRAME" x="-310" y="-50" width="620" height="230" fill="none"/>
    </g>
    <g transform="translate(1440.0, 200.0)">
      <rect id="ITEM_2_ACCENT_BG" x="-400" y="-180.0" width="800" height="395.0" rx="24" fill="var(--semantic-evidence)" fill-opacity="1.0"/>
      <rect id="ITEM_2_BG" x="-400" y="-180.0" width="800" height="395.0" rx="24" fill="var(--panel)" stroke="var(--accent-2)" filter="url(#svg1aed0a31-shadow)" stroke-width="3"/>
      <rect x="-388" y="-168.0" width="776" height="371.0" rx="22" fill="url(#svg1aed0a31-myth-card-sheen)" opacity="0.92"/>
      <circle id="ITEM_2_PAD" cx="330" cy="-100" r="50" fill="var(--icon-pad-bg)" stroke="var(--semantic-evidence)" stroke-width="2" stroke-opacity="0.72" opacity="1" fill-opacity="0.9" data-badge-layer="pad"/>
      <circle id="ITEM_2_PAD_INNER" cx="330" cy="-100" r="39.00" fill="var(--semantic-evidence)" fill-opacity="0.12" stroke="none" data-badge-layer="tint"/>
      <circle cx="330" cy="-100" r="36" fill="none" stroke="var(--accent-2)" stroke-width="3" stroke-dasharray="6 4" display="none" data-suppressed-decoration="redundant-badge-ring"/>
      <g id="ITEM_2_ICON" transform="translate(300, -130)" data-icon-size="60" stroke-linecap="round" stroke-linejoin="round" data-badge-treatment="clean">
        <g transform="translate(-14.571428571428571,-15.964285714285712) scale(2.7857142857142856)">
          <path d="M22.5247 17.94C26.6502 17.94 29.9947 14.5956 29.9947 10.47C29.9947 6.34443 26.6502 3 22.5247 3C18.3991 3 15.0547 6.34443 15.0547 10.47C15.0547 14.5956 18.3991 17.94 22.5247 17.94Z" fill="#533566"/>
          <path d="M2.64445 29.2101C1.81445 28.3301 1.78446 26.9601 2.56446 26.0401L15.1045 11.3401L21.2145 17.8201L5.80445 29.4801C4.84445 30.2101 3.47445 30.0901 2.64445 29.2101Z" fill="#9B9B9B"/>
          <path d="M18.9958 4.00515L28.9358 14.5552C29.5958 15.2552 29.5658 16.3552 28.8658 17.0051C28.1658 17.6651 27.0758 17.6352 26.4158 16.9352L16.4758 6.38515C15.8158 5.68515 15.8458 4.59517 16.5458 3.93517C17.2458 3.27517 18.3358 3.30515 18.9958 4.00515ZM15.4146 18.5302C15.4146 19.342 14.7565 20.0002 13.9446 20.0002C13.1328 20.0002 12.4746 19.342 12.4746 18.5302C12.4746 17.7183 13.1328 17.0602 13.9446 17.0602C14.7565 17.0602 15.4146 17.7183 15.4146 18.5302Z" fill="#BEBEBE"/>
        </g>
      </g>
      <text id="ITEM_2_HEAD" x="0.0" y="-130.0" text-anchor="middle" font-weight="bold" font-size="32" fill="var(--semantic-evidence)" data-bg-id="ITEM_2_BG" fill-opacity="1.0" style="font-size: 31px; font-family: 'Segoe UI Variable Display', 'Aptos Display', 'Inter', 'Segoe UI', Helvetica, Arial, sans-serif; font-weight: 700; font-kerning: normal; font-feature-settings: &quot;kern&quot; 1, &quot;liga&quot; 1; letter-spacing:-0.4px;" data-final-font-size="31">
        <tspan x="0.0" dy="42.12px">Objective Acoustics</tspan>
      </text>
      <rect id="ITEM_2_HEAD_FRAME" x="-310" y="-130" width="620" height="60" fill="none"/>
      <text id="ITEM_2_BODY" x="0.0" y="-50.0" text-anchor="middle" font-size="24" fill="var(--primary-text)" opacity="0.88" data-bg-id="ITEM_2_BG" style="font-size: 23px; font-family: 'Segoe UI Variable Text', 'Aptos', 'Inter', 'Segoe UI', Helvetica, Arial, sans-serif; font-weight: 400; font-kerning: normal; font-feature-settings: &quot;kern&quot; 1, &quot;liga&quot; 1;" data-final-font-size="23">
        <tspan x="0.0" dy="65.55px">Microphones record permanent frequency spectra and pressure</tspan>
      </text>
      <rect id="ITEM_2_BODY_FRAME" x="-310" y="-50" width="620" height="230" fill="none"/>
    </g>
    <g transform="translate(480.0, 600.0)">
      <rect id="ITEM_3_ACCENT_BG" x="-400" y="-180.0" width="800" height="395.0" rx="24" fill="var(--semantic-claim)" fill-opacity="1.0"/>
      <rect id="ITEM_3_BG" x="-400" y="-180.0" width="800" height="395.0" rx="24" fill="var(--panel)" stroke="var(--accent-3)" filter="url(#svg1aed0a31-shadow)" stroke-width="3"/>
      <rect x="-388" y="-168.0" width="776" height="371.0" rx="22" fill="url(#svg1aed0a31-myth-card-sheen)" opacity="0.92"/>
      <circle id="ITEM_3_PAD" cx="-330" cy="-100" r="50" fill="var(--icon-pad-bg)" stroke="var(--semantic-claim)" stroke-width="2" stroke-opacity="0.72" opacity="1" fill-opacity="0.9" data-badge-layer="pad"/>
      <circle id="ITEM_3_PAD_INNER" cx="-330" cy="-100" r="39.00" fill="var(--semantic-claim)" fill-opacity="0.12" stroke="none" data-badge-layer="tint"/>
      <circle cx="-330" cy="-100" r="36" fill="none" stroke="var(--accent-3)" stroke-width="3" stroke-dasharray="6 4" display="none" data-suppressed-decoration="redundant-badge-ring"/>
      <g id="ITEM_3_ICON" transform="translate(-360, -130)" data-icon-size="60" stroke-linecap="round" stroke-linejoin="round" data-badge-treatment="clean">
        <g transform="translate(-14.176991150442477,-13.831858407079647) scale(2.7610619469026547)">
          <path d="M19.455 24.44C18.934 24.44 18.398 24.425 17.855 24.408C17.263 24.391 16.644 24.372 15.995 24.372C8.92103 24.372 5.06703 21.423 2.69503 14.194C1.87203 11.682 1.90603 9.82202 2.79503 8.50802C4.12003 6.55802 6.89503 6.38802 9.58003 6.22402C11.664 6.09602 13.818 5.96402 14.834 5.00502C18.224 1.80502 22.612 1.08302 26.018 3.15202C28.652 4.75202 30.918 8.40702 29.363 13.852C28.6285 16.6652 27.4104 19.3292 25.763 21.725C24.06 24.084 21.916 24.44 19.455 24.44ZM21.841 3.99402C19.7175 4.06887 17.7024 4.95038 16.206 6.45902C14.663 7.91602 12.14 8.07102 9.70003 8.22002C7.50003 8.35402 5.22003 8.49402 4.44703 9.63202C3.93403 10.388 3.98103 11.714 4.58903 13.571C6.66803 19.904 9.86403 22.371 15.989 22.371C16.658 22.371 17.298 22.39 17.908 22.408C21.056 22.501 22.762 22.462 24.139 20.557C25.6493 18.3497 26.7658 15.8974 27.439 13.309C28.48 9.65402 27.539 6.41802 24.979 4.86202C24.0333 4.28846 22.9471 3.98802 21.841 3.99402Z" fill="#5235A6"/>
          <path d="M17 13.8921H22.49H24.99C27.76 13.8921 30 16.1321 30 18.9021V21.082V23.8721V23.972C30 27.292 27.31 29.982 23.99 29.982H21.44C19.95 29.982 18.58 29.142 17.91 27.802L17.45 26.882C17.17 26.342 16.61 25.992 16 25.992C15.38 25.992 14.82 26.332 14.55 26.882L14.09 27.802C13.42 29.132 12.06 29.982 10.56 29.982H8.01C4.69 29.982 2 27.292 2 23.972V23.8721V21.082V18.9021C2 16.1321 4.24 13.8921 7.01 13.8921H9.51H15H17Z" fill="#00A6ED"/>
          <path d="M24.99 16.072H22.49H17H15H9.51H7.01C4.24 16.072 2 18.312 2 21.082V23.002C2 25.652 4.15 27.802 6.8 27.802H10.56C12.06 27.802 13.42 26.952 14.09 25.622L14.55 24.702C14.82 24.152 15.38 23.812 16 23.812C16.62 23.812 17.17 24.162 17.45 24.702L17.91 25.622C18.58 26.962 19.95 27.802 21.44 27.802H25.2C27.85 27.802 30 25.652 30 23.002V21.082C30 18.312 27.76 16.072 24.99 16.072Z" fill="#83CBFF"/>
          <path d="M12.7071 19.6992C13.0976 19.3086 13.0976 18.6755 12.7071 18.285C12.3166 17.8944 11.6834 17.8944 11.2929 18.285L4.8029 24.775C4.41238 25.1655 4.41238 25.7986 4.8029 26.1892C5.19343 26.5797 5.82659 26.5797 6.21712 26.1892L12.7071 19.6992Z" fill="#AEDDFF"/>
          <path d="M27.7071 19.6992C28.0976 19.3086 28.0976 18.6755 27.7071 18.285C27.3166 17.8944 26.6834 17.8944 26.2929 18.285L19.8029 24.775C19.4124 25.1655 19.4124 25.7986 19.8029 26.1892C20.1934 26.5797 20.8266 26.5797 21.2171 26.1892L27.7071 19.6992Z" fill="#AEDDFF"/>
        </g>
      </g>
      <text id="ITEM_3_HEAD" x="0.0" y="-130.0" text-anchor="middle" font-weight="bold" font-size="32" fill="var(--semantic-claim)" data-bg-id="ITEM_3_BG" fill-opacity="1.0" style="font-size: 31px; font-family: 'Segoe UI Variable Display', 'Aptos Display', 'Inter', 'Segoe UI', Helvetica, Arial, sans-serif; font-weight: 700; font-kerning: normal; font-feature-settings: &quot;kern&quot; 1, &quot;liga&quot; 1; letter-spacing:-0.4px;" data-final-font-size="31">
        <tspan x="0.0" dy="42.12px">Visual Illusion</tspan>
      </text>
      <rect id="ITEM_3_HEAD_FRAME" x="-310" y="-130" width="620" height="60" fill="none"/>
      <text id="ITEM_3_BODY" x="0.0" y="-50.0" text-anchor="middle" font-size="24" fill="var(--primary-text)" opacity="0.88" data-bg-id="ITEM_3_BG" style="font-size: 23px; font-family: 'Segoe UI Variable Text', 'Aptos', 'Inter', 'Segoe UI', Helvetica, Arial, sans-serif; font-weight: 400; font-kerning: normal; font-feature-settings: &quot;kern&quot; 1, &quot;liga&quot; 1;" data-final-font-size="23">
        <tspan x="0.0" dy="65.55px">Night conditions cause humans to misjudge distance</tspan>
      </text>
      <rect id="ITEM_3_BODY_FRAME" x="-310" y="-50" width="620" height="230" fill="none"/>
    </g>
    <g transform="translate(1440.0, 600.0)">
      <rect id="ITEM_4_ACCENT_BG" x="-400" y="-180.0" width="800" height="395.0" rx="24" fill="var(--semantic-evidence)" fill-opacity="1.0"/>
      <rect id="ITEM_4_BG" x="-400" y="-180.0" width="800" height="395.0" rx="24" fill="var(--panel)" stroke="var(--accent-4)" filter="url(#svg1aed0a31-shadow)" stroke-width="3"/>
      <rect x="-388" y="-168.0" width="776" height="371.0" rx="22" fill="url(#svg1aed0a31-myth-card-sheen)" opacity="0.92"/>
      <circle id="ITEM_4_PAD" cx="330" cy="-100" r="50" fill="var(--icon-pad-bg)" stroke="var(--semantic-evidence)" stroke-width="2" stroke-opacity="0.72" opacity="1" fill-opacity="0.9" data-badge-layer="pad"/>
      <circle id="ITEM_4_PAD_INNER" cx="330" cy="-100" r="39.00" fill="var(--semantic-evidence)" fill-opacity="0.12" stroke="none" data-badge-layer="tint"/>
      <circle cx="330" cy="-100" r="36" fill="none" stroke="var(--accent-4)" stroke-width="3" stroke-dasharray="6 4" display="none" data-suppressed-decoration="redundant-badge-ring"/>
      <g id="ITEM_4_ICON" transform="translate(300, -130)" data-icon-size="60" stroke-linecap="round" stroke-linejoin="round" data-badge-treatment="clean">
        <g transform="translate(-9.0,-9.0) scale(3.25)" vector-effect="non-scaling-stroke" stroke-width="2.43" stroke-linecap="round" stroke-linejoin="round" stroke-opacity="1.0">
          <path fill="none" fill-rule="evenodd" d="M8.21772 19.7548c-0.87886 1.015 -1.66921 2.1034 -2.36239 3.2533 -0.27027 0.5105 0.36037 0.8008 0.61062 0.3703 0.08008 0 3.24328 -3.7838 3.64365 -4.2643 0.3404 -0.7007 0 -0.9209 -0.61058 -0.5605 -0.61062 0.3603 -1.23125 1.1511 -1.2813 1.2012Z" clip-rule="evenodd" vector-effect="non-scaling-stroke" stroke="#f1f5f9"/>
          <path fill="none" fill-rule="evenodd" d="M13.4431 18.003c0.6406 -0.5305 0.6907 -1.8318 0.3904 -3.1131 1.4214 -0.1201 3.4234 -0.1702 3.3834 -1.6917 0 -1.7818 -2.1622 -1.922 -3.8139 -1.8819 -0.0911 0.0026 -0.1777 0.0406 -0.2412 0.1061 -0.0636 0.0654 -0.0991 0.153 -0.0991 0.2442 0 0.5506 0.6507 0.2202 1.9119 0.4705 0.6006 0.1201 1.2113 0.3303 1.3214 0.9309 0.1101 0.6006 -0.5306 0.5906 -1.001 0.6507 -2.3709 0.1486 -4.7493 0.1285 -7.11723 -0.0601 -0.40041 0 -0.37038 -0.6606 -0.12012 -0.8408 0.93094 -0.6607 3.00305 -0.5506 4.09415 -0.5606 0.0388 0.0092 0.079 0.0107 0.1183 0.0044 0.0394 -0.0064 0.0771 -0.0204 0.111 -0.0413 0.0339 -0.0209 0.0634 -0.0483 0.0868 -0.0806 0.0233 -0.0323 0.0401 -0.0689 0.0493 -0.1077s0.0106 -0.079 0.0043 -0.1184c-0.0063 -0.0393 -0.0204 -0.077 -0.0413 -0.1109 -0.0209 -0.034 -0.0483 -0.0634 -0.0806 -0.0868 -0.0323 -0.0233 -0.0689 -0.0401 -0.1077 -0.0493 -2.2122 -0.1401 -5.57561 -0.5305 -5.40544 1.8219 0.01114 0.3003 0.12753 0.5873 0.32882 0.8105 0.20129 0.2233 0.47466 0.3686 0.7723 0.4107 0.63063 0.0801 1.27128 0.1301 1.92194 0.1702l-0.08008 0.6306c-0.06006 0.6607 -0.71072 1.8519 0.33036 2.5226 0 0 0.3804 0.2702 0.4504 0.1801 -0.2884 0.7706 -0.4964 1.569 -0.6206 2.3824 -0.02807 1.0298 0.0188 2.0602 0.1401 3.0832 0.0155 0.0768 0.0533 0.1474 0.1085 0.203 0.0553 0.0556 0.1256 0.0938 0.2024 0.1098 0.0767 0.016 0.1565 0.0091 0.2293 -0.0198 0.0729 -0.029 0.1357 -0.0786 0.1806 -0.1429 0.1902 -0.3403 0.4704 -5.3954 0.4604 -5.4855 0.2929 0.0303 0.5881 0.0303 0.8809 0 0 0.08 0.3504 5.2653 0.4705 5.4855 0.0449 0.0643 0.1077 0.1139 0.1805 0.1429 0.0729 0.0289 0.1526 0.0358 0.2294 0.0198 0.0767 -0.016 0.1471 -0.0542 0.2024 -0.1098 0.0552 -0.0556 0.0929 -0.1262 0.1084 -0.203 0.3274 -1.8172 0.1544 -3.6891 -0.5005 -5.4155 0.2097 -0.0255 0.4059 -0.1166 0.5606 -0.2603Zm-0.2403 -1.2713c-0.1501 0.7508 -2.4825 0.5106 -2.5625 0.3104 -0.1702 -0.3804 0 -1.0011 0 -1.5116v-0.5906c0.8069 0.0415 1.6155 0.0415 2.4224 0 0.156 0.5768 0.2036 1.1776 0.1401 1.7718v0.02Z" clip-rule="evenodd" vector-effect="non-scaling-stroke" stroke="#f1f5f9"/>
          <path fill="none" fill-rule="evenodd" d="M16.456 21.7769c-0.2202 -0.3003 -0.3904 -0.6206 -0.5805 -0.941 -0.4422 -0.8521 -1.0888 -1.5812 -1.8819 -2.1221 -0.5706 -0.5406 -0.7108 0.0801 -0.4605 0.6907 0.6242 1.0695 1.3518 2.0754 2.1722 3.003 0.5205 0.4905 1.2312 1.5015 1.6016 1.2012 0.3704 -0.3003 -0.5706 -1.4314 -0.8509 -1.8318Z" clip-rule="evenodd" vector-effect="non-scaling-stroke" stroke="#f1f5f9"/>
          <path fill="none" fill-rule="evenodd" d="M18.6583 2.98785c-0.3404 -1.1912 -2.002 -0.56057 -2.7328 -0.80081 0 -0.09009 -0.1201 -0.29029 -0.1401 -0.37037 -0.0276 -0.44221 -0.1433 -0.87445 -0.3404 -1.271288 -0.1035 -0.166261 -0.2535 -0.298506 -0.4314 -0.380353 -0.1779 -0.0818473 -0.376 -0.1097013 -0.5696 -0.0801122 -0.0902 0 -0.1768 0.0358572 -0.2406 0.0996842 -0.0639 0.063827 -0.0997 0.150395 -0.0997 0.24066 0 0.090265 0.0358 0.176833 0.0997 0.240659 0.0638 0.063827 0.1504 0.099685 0.2406 0.099685 0.7708 -0.050051 0.2703 1.661675 1.001 2.002025 0.6204 0.18076 1.2668 0.25521 1.912 0.22022 0.9209 0.09009 0.5405 0.53054 0.5305 1.26128 -0.2102 4.11416 -0.1001 4.53458 -1.001 4.7548 -0.3704 0.09009 0.5305 0 -8.0081 0.22022 -0.72368 0.08931 -1.45779 0.03833 -2.16219 -0.15015 -0.43043 -0.35035 -0.36036 -1.48149 -0.41041 -2.0821 -0.06006 -1.76178 -0.16016 -2.56259 0.2002 -3.32336 0.23023 -0.50051 0.38039 -0.55056 0.5906 -0.60061 0.66067 -0.14014 3.4134 -0.22022 3.8038 -0.42042 0.3904 -0.20021 0.2403 -0.41042 0.2703 -0.5906 0.2202 -1.421437 0.8809 -1.461477 2.3724 -1.451467 0.0797 0 0.156 -0.031639 0.2124 -0.087957 0.0563 -0.056318 0.0879 -0.132701 0.0879 -0.212347 0 -0.079645 -0.0316 -0.156028 -0.0879 -0.2123462 -0.0564 -0.0563179 -0.1327 -0.08795692 -0.2124 -0.08795692C12.412 -0.0151844 11.411 -0.0151844 10.8003 0.895736c-0.1838 0.340314 -0.309 0.709184 -0.3703 1.091104 -3.35342 0.1001 -3.83391 0.14014 -4.27435 0.55056 -0.37787 0.4122 -0.64933 0.91046 -0.7908 1.45146 -0.21888 1.67999 -0.1919 3.3829 0.08008 5.05511 0.1096 0.35042 0.32364 0.65898 0.61345 0.8844 0.28982 0.22543 0.64158 0.35693 1.00819 0.37683 0.68069 0.1102 0.87088 0.0801 8.23833 -0.1601 1.1512 0 2.5926 0 3.1031 -1.11114 0.2311 -0.6549 0.3331 -1.34837 0.3003 -2.04206 0.1118 -1.3332 0.0951 -2.67406 -0.05 -4.00405Z" clip-rule="evenodd" vector-effect="non-scaling-stroke" stroke="#f1f5f9"/>
          <path fill="none" fill-rule="evenodd" d="M12.2917 3.68854c-0.6505 0.20511 -1.2159 0.61754 -1.61 1.17427 -0.394 0.55673 -0.595 1.22715 -0.5722 1.90885 0.1101 1.72174 4.0041 3.13316 5.4055 0.11011 0.8609 -1.89192 -1.3414 -3.82387 -3.2233 -3.19323Zm2.5026 1.93195c0.0258 0.40017 -0.0849 0.79726 -0.314 1.12636 -0.2291 0.32911 -0.5631 0.57076 -0.9473 0.68547 -1.001 0.34035 -2.2723 -0.36036 -2.3123 -0.75075 -0.0531 -0.4573 0.0491 -0.91916 0.2903 -1.31133 0.1557 -0.31872 0.4035 -0.58335 0.7113 -0.75964 0.3079 -0.17629 0.6615 -0.25612 1.0152 -0.22916 0.3537 0.02696 0.6912 0.15947 0.9687 0.38037 0.2776 0.22091 0.4824 0.52004 0.5881 0.85868Z" clip-rule="evenodd" vector-effect="non-scaling-stroke" stroke="#f1f5f9"/>
          <path fill="none" fill-rule="evenodd" d="M8.16777 1.20609c0.16593 -0.02939 0.32977 -0.06951 0.4905 -0.12012C12.2619 -0.195328 6.7063 0.195067 6.73633 0.755634c0.02002 0.390396 1.07108 0.490496 1.43144 0.450456Z" clip-rule="evenodd" vector-effect="non-scaling-stroke" stroke="#f1f5f9"/>
        </g>
      </g>
      <text id="ITEM_4_HEAD" x="0.0" y="-130.0" text-anchor="middle" font-weight="bold" font-size="32" fill="var(--semantic-evidence)" data-bg-id="ITEM_4_BG" fill-opacity="1.0" style="font-size: 31px; font-family: 'Segoe UI Variable Display', 'Aptos Display', 'Inter', 'Segoe UI', Helvetica, Arial, sans-serif; font-weight: 700; font-kerning: normal; font-feature-settings: &quot;kern&quot; 1, &quot;liga&quot; 1; letter-spacing:-0.4px;" data-final-font-size="31">
        <tspan x="0.0" dy="42.12px">Calibrated Optics</tspan>
      </text>
      <rect id="ITEM_4_HEAD_FRAME" x="-310" y="-130" width="620" height="60" fill="none"/>
      <text id="ITEM_4_BODY" x="0.0" y="-50.0" text-anchor="middle" font-size="24" fill="var(--primary-text)" opacity="0.88" data-bg-id="ITEM_4_BG" style="font-size: 23px; font-family: 'Segoe UI Variable Text', 'Aptos', 'Inter', 'Segoe UI', Helvetica, Arial, sans-serif; font-weight: 400; font-kerning: normal; font-feature-settings: &quot;kern&quot; 1, &quot;liga&quot; 1;" data-final-font-size="23">
        <tspan x="0.0" dy="65.55px">Scientific cameras provide precise time stamps and brightness</tspan>
      </text>
      <rect id="ITEM_4_BODY_FRAME" x="-310" y="-50" width="620" height="230" fill="none"/>
    </g>
  </g>
  <text id="SOURCE_NOTE" x="134.0" y="1058.0" fill="var(--muted-text)" opacity="0.88" style="font-family: var(--font-family); font-size: 20px;">Source: Introduction</text>
</svg>
